<?xml version="1.0" encoding="utf-8"?>
<!-- Generator: Adobe Illustrator 24.1.1, SVG Export Plug-In . SVG Version: 6.00 Build 0)  -->
<svg version="1.1" id="Layer_1" xmlns="http://www.w3.org/2000/svg" xmlns:xlink="http://www.w3.org/1999/xlink" x="0px" y="0px"
	 viewBox="0 0 800 250" style="enable-background:new 0 0 800 250;" xml:space="preserve">
<style type="text/css">
	.st0{fill:none;}
	.st1{fill:#FFC55C;}
	.st2{font-family:'CooperBlack';}
	.st3{font-size:139.0653px;}
	.st4{font-family:'MyriadPro-Regular';}
	.st5{fill:#D63517;stroke:#FF9A00;stroke-width:0.25;stroke-miterlimit:10;}
	.st6{font-family:'BernardMT-Condensed';}
	.st7{opacity:0.1091;fill:#FF3E00;}
</style>
<rect x="50.8" y="60.1" class="st0" width="843.7" height="153.9"/>
<text transform="matrix(0.7853 0 0 1 50.792 169.6924)"><tspan x="0" y="0" class="st1 st2 st3">HOTEL</tspan><tspan x="501.3" y="0" class="st1 st4 st3"> </tspan><tspan x="530.7" y="0" class="st5 st6 st3">JOYFUL           </tspan></text>
<g>
	<g>
		<g>
			<path class="st7" d="M11.3,206.8c7.5-1.6,14.9-3.7,22.2-6.1c3.7-1.4,7.4-2.7,11.1-4.1c7.5-2.9,14.8-6.6,22-10.3
				c10.9-5.7,21.2-12.6,31.1-19.9c11.9-8.7,22.8-18.7,33-29.4c9-9.4,17.3-19.3,24.9-29.8c4.5-6.2,10.1-12.2,12.2-19.7
				c0.8-2.9,1.5-5.9,2.3-8.8c1-3.9,2-9.1,5.7-11.5c-1.7,0.6-3.4,1.2-5.1,1.8c1.2-0.2,2.3-0.5,3.5-0.7c-1,0.1-2.1,0.1-3.1,0.2
				c1.7,2.3,2.4,4.9,2.1,7.6c-0.2,1.8-0.1,3.6,0.2,5.4c0.3,2.3,0.7,4.6,1.2,6.9c0.2,0.8,0.5,1.9,1,2.5c0.5,0.4,1,0.8,1.6,1
				c9.4,3,19,5.7,28.6,8c40.9,10.3,82.4,18.4,124.2,23.9c19,2.5,38.1,4.5,57.2,6c25.4,2,50.8,2.8,76.3,3.1c-1.4-1.4-2.7-2.7-4.1-4.1
				c-3.2,12-7.2,23.7-12,35.2c-4.6,11.8-9,23.6-13.2,35.5c-0.1,0.2-1,2.4-0.1,2.2c8.6-2.3,16.9-5.3,25-9.1c7.7-3.6,15.2-7.6,22.5-12
				c10.5-6.4,20.5-13.7,30.2-21.4c21.6-17.1,41.5-36.3,62.7-53.9c13.2-11,27-21.4,41.7-30.3c12.1-7.3,24.6-14.1,37.6-19.8
				c16.9-7.5,34.5-13.5,52.4-17.8c8.9-2.1,17.8-3.9,26.9-5.2c9-1.3,18-2.2,27.1-2.7c1-0.1-1.4-1.2-1.1-1.1c-0.8-0.4-1.7-0.8-2.5-1.2
				c-0.4-0.2-0.9-0.4-1.4-0.5c-9.1,0.6-18.3,1.6-27.3,3.1c-9.1,1.4-18.1,3.3-27,5.6c-13.5,3.5-26.8,7.8-39.7,13
				c-28.3,11.4-54.8,26.9-78.9,45.6c-19.6,15.3-37.7,32.3-56.4,48.6c-8.8,7.7-17.8,15.2-27.1,22.4c-12.7,10.1-26.4,18.6-40.9,25.6
				c-7.4,3.6-15.1,6.4-23.1,8.3c0,0.7-0.1,1.4-0.1,2.2c4.3-11.4,8.8-22.8,13.7-34c5.1-11.5,10.3-22.9,15.6-34.3
				c0.3-0.7-3.5-4-4.1-4.1c-25.3-0.4-50.6-1.3-75.9-3.3c-25.3-2-50.6-5-75.7-8.8c-25.3-3.9-50.5-8.6-75.5-14.3
				c-12.6-2.8-25.2-5.9-37.8-9.2c-11.9,1.6-18.6-1.4-20.3-9c0.1,0.8,0.3,1.6,0.4,2.5c-0.1-4,0.6-7.5,1.5-11.3c0.3-1,0.5-2.1,0.8-3.1
				c0.6-1.7,0.5-3.3-0.1-5c-0.1,0-0.1-0.1-0.2-0.1c-0.4-0.1-0.8-0.2-1.3-0.3c-0.7-0.2-2.4,0.6-2.8,0.7c-0.8,0.3-2.2,0.5-2.7,1.1
				c-2.7,3-4,7-5.1,10.8c-0.9,2.8-1.6,5.6-2.6,8.3c-2.9,7.2-8.2,13.3-12.9,19.5c-15.1,20.3-32.8,38.4-52.9,53.8
				c-9.7,7.4-19.8,14.1-30.5,20c-11.9,6.9-24.5,12.4-37.7,16.7c-7.2,2.4-14.4,4.3-21.8,5.8c-0.8,0.2,0.9,1.2,0.9,1.2
				c0.8,0.5,1.6,1,2.4,1.5C10.3,206.5,10.8,206.7,11.3,206.8z"/>
			<path class="st7" d="M11.9,210.6c9.5-2.4,18.8-4.9,27.9-8.3c5.7-2.1,11.3-4.4,16.7-7c9.2-4.4,18-9.4,26.6-14.9
				c15.9-10.2,30.7-22.2,44-35.6c7.6-7.6,14.7-15.7,21.4-24.2c4.8-6.1,6.7-8.3,11.7-15.7c0.6-0.9,6.9-10.1,7.3-11.1
				c1.5-3.6,2.1-7.6,3.1-11.4c0.5-2,1-3.9,1.7-5.9c0.8-2.4,2-5.6,4.5-6.9c-0.5,0-1,0.1-1.6,0.1c0.5,0.1,1,0.2,1.5,0.2
				c-0.2-0.1-0.3-0.2-0.5-0.2c0.5,2.6,0.3,5.1-0.5,7.6c-0.7,2.4-1.3,4.7-2.1,7.1c-0.2,1.6,0,3.9,0.2,5.4c0.2,1.5,0.4,3.9,1.6,5.3
				c0.4,0.6,0.9,1,1.7,1.2c9.7,2.7,19.4,5.3,29.1,7.7c40.9,10.3,82.5,18.3,124.3,23.8c19,2.5,38.1,4.4,57.3,6
				c25.4,2,50.9,2.7,76.4,3.1c-0.7-1-1.4-1.9-2.1-2.9c-4.9,11.9-10,23.7-15,35.5c-4.8,11.5-9.4,23-13.7,34.7
				c-0.1,0.2-0.5,1.6,0.2,1.4c8.9-2.4,17.5-5.6,25.8-9.5c4-1.9,7.9-3.8,11.8-5.8c14.7-7.8,28.3-17.4,41.4-27.7
				c20.2-15.9,38.9-33.7,58.6-50.3c10.9-9.3,22.1-18.2,34-26.2c15.7-10.6,32.4-19.9,49.8-27.5c16.9-7.4,34.5-13.3,52.4-17.6
				c8.9-2.1,17.8-3.8,26.8-5.1c9-1.3,18-2.1,27-2.5c0.6,0-0.2-0.8-0.3-0.9c-0.4-0.4-1.3-1.3-1.9-1.2c-9.1,0.5-18.1,1.4-27.1,2.8
				c-9,1.3-18,3.1-26.9,5.3c-13.4,3.4-26.6,7.5-39.5,12.5c-28.3,11.1-54.8,26.4-78.8,45c-19.9,15.4-38.1,32.6-57.1,49
				c-12.2,10.6-24.7,20.8-38,30c-6.8,4.7-13.9,9.1-21.2,13c-11.7,6.6-24,11.6-36.9,14.9c0.1,0.5,0.2,0.9,0.2,1.4
				c4.4-11.5,9.1-22.9,14.1-34.2c5.2-11.5,10.7-22.9,16.5-34.1c0.3-0.6-1.5-3.1-2.1-3.1c-38.2-0.6-76.3-2.4-114.2-6.9
				c-35-4.1-69.8-9.8-104.3-17.2c-15.9-3.4-31.7-7.1-47.5-11.1c-11.1,2.4-17.9-0.1-20.5-7.6c-1.2-1.5-1.4-3.2-0.8-5.1
				c0.8-3.7,2.5-7.2,3.2-10.9c0.1-1,0.3-2,0.4-3c0-0.8-0.1-1.6-0.5-2.4c0,0-0.1-0.1-0.1-0.1c-0.9-0.3-1.8-0.6-2.8-0.4
				c-2.4,0.6-3.5,4.1-4.3,6c-1.8,4.3-2.7,8.9-4,13.3c-0.3,0.9-0.5,1.8-0.8,2.7c-41,35.6-81.9,71.3-122.9,106.9
				c-10.8,4.5-22.1,7.4-33.4,10.4C9.1,208.6,11.4,210.8,11.9,210.6z"/>
			<path class="st7" d="M8.8,204.6c7.6-1.5,15-3.5,22.3-6c3.7-1.4,7.4-2.7,11.1-4.1c11.2-4.4,21.9-10,32.3-16.1
				c10.7-6.2,20.7-13.6,30.3-21.3c11.5-9.3,22.1-19.7,31.9-30.8c8.6-9.8,16.5-20,23.7-30.9c2.1-2.2,3.5-4.7,4.4-7.5
				c0.4-1.3,0.8-2.6,1.2-3.9c1.6-5.7,2.9-11.8,6.4-16.7c-0.1,0.1-0.2,0.2-0.3,0.3c0.4-0.3,0.8-0.5,1.2-0.8c-4.3,1.7-8.6,3.5-13,5.2
				c4.1,1.5,8.1,2.9,12.2,4.4c-2.7-1.9-5.5-3.8-8.2-5.7c1.4,4.9,4.2,9.2,8.4,12.9c-0.4-0.8-0.8-1.6-1.2-2.5c0.8,1.8,1.5,4.7,3.1,6.1
				c2.6,2.4,10.3,3.7,11.2,3.9c31.2,9.3,63.2,16.3,95.2,22.1c28.4,5.2,56.9,9.2,85.6,12c31.7,3.1,63.4,4.5,95.2,4.9
				c-3.2-3-6.4-6-9.5-8.9c-2.5,10.4-4.7,20.8-6.6,31.3c-2.8,14.9-6.5,29.6-11,44.2c-0.2,0.4-0.3,0.8-0.1,1.2
				c8-2.5,15.7-5.6,23.2-9.3c5.5-2.5,10.8-5.2,16-8.2c10.6-5.8,20.7-12.4,30.4-19.6c20.7-15.3,39.5-32.8,59.1-49.5
				c8.6-7.4,17.4-14.6,26.5-21.4c11.6-8.7,23.8-16.5,36.4-23.6c12.3-7,25.1-12.8,38.2-18.1c8.6-3.4,17.4-6.4,26.3-9
				c8.8-2.6,17.7-4.8,26.7-6.6c-0.1,0-0.3,0-0.4,0.1c4.6-0.8,9.2-1.6,13.9-2.4c-0.1,0-0.3,0-0.4,0.1c4.6-0.6,9.3-1.2,13.9-1.8
				c-0.1,0-0.3,0-0.4,0c4.7-0.4,9.3-0.8,14-1.1c-0.3-0.4-0.7-0.7-1.2-0.8c-1.6-0.8-3.2-1.5-4.8-2.2c-1.6-0.7-3.3-1.4-4.9-2
				c-0.4-0.3-0.9-0.4-1.4-0.3c-9.3,0.9-18.5,2.1-27.6,3.8c-9.2,1.7-18.3,3.8-27.3,6.3c-13.6,3.8-26.9,8.6-40,14
				c-31.9,13.3-61.2,32.2-87.9,53.9c-20.5,16.7-40,34.7-61.2,50.6c-10.1,7.5-20.5,14.5-31.8,20.2c-5.4,2.5-10.8,5-16.2,7.6
				c-4.9,3.2-9.9,6.1-15.2,8.8c0,0.4-0.1,0.8-0.1,1.2c2.4-8.7,5.4-17.2,8.9-25.5c4.5-11.2,9.3-22.2,14.5-33c0.4-0.8-4.3-4.6-4.5-4.7
				c-1.3-1.2-2.5-2.3-3.8-3.5c-0.3-0.4-0.7-0.6-1.2-0.7c-28.3-0.7-56.5-2.1-84.7-4.9c-31.4-3.1-62.6-7.7-93.5-13.7
				c-12.4-2.4-24.8-5.1-37.1-8c-15.3-3.6-30.7-7.4-45.7-12.2c-6-2.1-12-4.1-17.9-6.2c-0.4-0.3-0.8-0.5-1.3-0.8
				c-0.6-0.9-1.3-1.5-2.3-1.8c-1-0.4-1.9-0.9-2.8-1.5c1.9,3.1,3.8,6.2,5.8,9.3c-0.1-3.2,0.4-6,1.5-9.1c0.5-1.3,0.8-2.5,1-3.9
				c0.5-1.5,0-2.2-1.4-2.1c-0.5-0.1-1,0-1.5,0.3c-1.8,0.7-3.5,1.4-5.3,2.1c-1.7,0.7-3.5,1.5-5.2,2.3c-0.5,0.2-1,0.4-1.3,0.9
				c-2.8,4.4-4.7,9.2-6.8,14c-0.9,2-2,3.8-3.3,5.6c-2.4,3.4-4.9,6.9-7.3,10.3c-5,6.7-10.2,13.1-15.8,19.3
				c-16.2,18.1-34.8,33.8-55.3,46.8c-9.9,6.3-20.4,11.7-31.2,16.5c-7.1,3.1-14.3,5.8-21.7,8.1c-7.1,2.2-14.4,3.9-21.7,5.1
				c0.2,0.4,0.6,0.8,1.1,1c1.5,0.9,3,1.8,4.5,2.7c1.5,0.9,3.1,1.7,4.6,2.6C7.8,204.4,8.3,204.6,8.8,204.6z"/>
			<path class="st7" d="M9,206.4c7.5-1.5,14.9-3.5,22.2-6c3.7-1.4,7.4-2.7,11.1-4.1c11.1-4.4,22.1-10,32.3-16.1
				c10.6-6.3,20.7-13.6,30.3-21.4c9.7-8,19.1-16.8,27.6-26.1c8.7-9.6,17-19.6,24.3-30.3c2.4-3.7,4.8-7.3,7.3-11
				c0.6-1.5,1.1-3,1.5-4.5c1.7-6,2.8-12.7,6.5-17.9c-2.1,0.9-4.2,1.8-6.4,2.8c2.7-1,5.4-2,8-3c-2.8,0.6-5.6,1.2-8.4,1.7
				c1.8,0,3.6-0.1,5.3-0.1c-1.4,0-2.8-0.1-4.2-0.1c1.1,0.9,1.8,2.1,1.9,3.4c1.2,3.1,2.5,6.2,4,9.2c-0.8-2.2-1.6-4.4-2.4-6.6
				c1.1,3.4,2.2,6.9,3.2,10.3c0.2,0.8,0.4,1.5,0.9,2.2c0.6,1.1,1.1,1.4,2.1,2.1c6.3,1.9,12.7,3.8,19,5.6c9.5,2.6,19.1,5,28.7,7.2
				c15.8,3.7,31.7,7.2,47.7,10.2c28.4,5.3,56.9,9.6,85.7,12.6c15.8,1.7,31.7,3,47.6,4c19,1.1,38.1,1.6,57.2,1.9
				c-2.4-2.7-4.8-5.3-7.3-8c-2.3,11-5,22-8.1,32.8c-3.9,14.2-8.1,28.3-12.8,42.3c-0.2,0.3-0.2,0.7-0.1,1c6.2-1.9,12.2-4.1,18-6.8
				c5.8-2.4,11.4-5,16.9-8c10.8-5.7,21.2-12.3,31-19.5c17.7-12.9,34.1-27.4,50.5-41.8c16.5-14.5,33.2-29.1,51.6-41.4
				c11.9-8,24.2-15.4,37.1-21.7c37.7-18.5,74.8-28.5,119.3-32c-0.1-0.4-0.4-0.6-0.8-0.8c-1.2-0.7-2.4-1.4-3.6-2.1
				c-1.1-0.6-3.3-2.3-4.7-2.2c-4.6,0.5-9.2,1-13.8,1.5c-9.2,1.2-18.3,2.8-27.3,4.8c-18.2,4.1-36.1,9.8-53.4,17
				c-30,12.5-58,29.6-83.4,49.8C550.2,114,530.9,132.4,510,149c-11.7,9.3-23.9,18.1-36.9,25.5c-6.1,3.4-12.3,6.5-18.6,9.4
				c-5.8,2.9-11.6,5.7-17.5,8.3c0,0.3,0,0.7-0.1,1c7-20.9,15.8-40.7,24.9-60.7c0.4-0.8-3.1-4-3.4-4.2c-0.9-1.1-1.9-2.1-2.9-3.1
				c-0.3-0.4-0.6-0.6-1-0.6c-28.4-0.6-56.7-1.9-85-4.6c-31.5-3-62.8-7.5-93.9-13.4c-12.5-2.4-25-5-37.4-7.8
				c-9.4-2.1-18.7-4.3-27.9-6.8c-6.1-1.7-12.3-3.4-18.4-5.1c-5.9-2.1-11.7-4.1-17.6-6.2c-0.5-0.6-1-1.3-1.5-1.9
				c-1-1.1-1.9-2.1-2.9-3.3c1,2.7,2,5.3,2.9,8c0-3.2,0.6-6.4,1.4-9.5c0.3-0.9,0.5-1.7,0.5-2.6c0.3-1,0.2-2-0.2-3
				c-0.1-0.6-9,1.5-9.5,1.9c-0.8,0.6-1.5,1.4-2.1,2.3c-0.8,1.3-1.5,2.7-2.1,4.1c-1.1,2.6-2.1,5.2-3.1,7.9c-0.8,2.1-1.6,4.2-2.9,6.2
				c-6,9.3-12.8,18.1-20,26.6c-17.1,20.4-37.2,38.3-59.7,52.6c-10,6.4-20.5,11.9-31.4,16.8c-7.1,3.2-14.4,5.9-21.8,8.3
				c-7.1,2.3-14.3,4-21.6,5.2c0.1,0.4,0.3,0.7,0.7,0.9c1.1,0.9,2.2,1.7,3.3,2.5c1.1,0.8,2.2,1.6,3.4,2.4
				C8.3,206.3,8.6,206.4,9,206.4z"/>
			<path class="st7" d="M12,206.2c7.4-1.7,14.8-3.8,22-6.2c5.7-1.9,11.2-4,16.6-6.5c11.2-4.9,21.8-10.7,32.1-17.2
				c23.1-14.8,43.8-33.3,61.3-54.4c4.2-5,8.2-10.2,12-15.5c3.9-5.3,7.7-10.7,11.1-16.4c0.7-1.6,1.1-3.2,1.6-4.9c0.8-3,1.5-6,2.3-9
				c0.9-3.2,1.9-7.9,5-9.9c-1.3,0.5-2.6,1-3.9,1.5c0.6-0.1,1.3-0.3,1.9-0.4c-0.5,0-1,0-1.4,0c2.9,3.5,1.7,8.5,1.5,12.7
				c-0.1,2.6-0.4,5.8,0.3,8.3c0.2,0.8,0.4,1.3,0.8,2c3.2,5.6,27.3,8.5,21.6,7c44,11.3,88.7,20.4,133.8,26.2c19,2.4,38.1,4.5,57.2,6
				c25.4,1.9,50.8,2.7,76.3,3c-0.9-0.9-1.9-1.7-2.8-2.6c-4,12.2-8.7,24.1-14,35.8c-4.8,11.4-9.3,23-13.6,34.6
				c-0.1,0.2-0.5,1.4,0.2,1.2c8.9-2.4,17.5-5.6,25.8-9.5c7.8-3.6,15.4-7.6,22.7-12.1c10.5-6.4,20.4-13.7,30.1-21.3
				c23.2-18.3,44.2-39.1,67-57.7c11.9-9.7,24.2-18.7,37.3-26.7C631,65.4,645.7,58,661,51.6c14.9-6.2,30.3-11.3,46-15
				c8.9-2.1,17.8-3.8,26.9-5.1c9-1.3,18-2.2,27.1-2.6c0.8-0.1-1-1-0.8-0.9c-0.8-0.4-2-1-2.9-0.9c-9.1,0.5-18.2,1.5-27.3,2.9
				c-9.1,1.4-18.1,3.2-27.1,5.4c-13.5,3.4-26.8,7.7-39.8,12.8c-31.9,12.4-61.3,30.7-87.7,52.4c-20.8,17.2-40.2,36-60.9,53.3
				c-10.5,8.8-21.4,17.3-33,24.7c-7.1,4.5-14.5,8.6-22.1,12.2c-8.1,3.9-16.5,7-25.3,9.3c0.1,0.4,0.1,0.8,0.2,1.2
				c4.4-11.6,9-23,14-34.3c5.3-11.5,10.7-23,16.1-34.4c0.3-0.6-2.3-2.6-2.8-2.6c-25.4-0.4-50.7-1.2-76-3.1
				c-25.4-2-50.7-4.9-75.8-8.7c-25.3-3.8-50.6-8.5-75.6-14.1c-12.7-2.8-25.3-5.9-37.9-9.1c-9,1-16.1-1.4-21.4-7
				c0.1,0.4,0.3,0.8,0.4,1.2c-0.4-3.7,0.2-7.3,0.9-11c0.5-2.2,1-4.4,1.5-6.6c0.6-1.8,0.6-3.6,0-5.3c-0.1,0-0.1-0.1-0.2-0.1
				c-0.4-0.1-0.8-0.2-1.2-0.4c-0.5-0.2-2.1,0.6-2.4,0.7c-0.7,0.3-1.7,0.5-2.3,1.1c-3.5,3.7-4.6,8.9-5.8,13.6
				c-2.3,8.3-3.9,10.5-10.4,20c-3.7,5.3-7.6,10.5-11.7,15.4c-3.9,5-8.1,9.9-12.5,14.5c-17,18-36.1,34.4-57.6,46.9
				c-8.7,5.1-17.5,9.6-26.7,13.6c-5.4,2.4-10.9,4.6-16.5,6.4c-7.1,2.3-14.3,4.3-21.6,6c-0.7,0.2,0.6,0.9,0.6,0.9
				C9.9,205.3,11.3,206.3,12,206.2z"/>
			<path class="st7" d="M8.6,203.9c7.6-1.5,15-3.5,22.3-5.9c3.7-1.4,7.4-2.7,11.1-4.1c11.1-4.3,22.1-9.9,32.3-16.1
				c10.6-6.3,20.8-13.5,30.3-21.3c9.7-8,19.2-16.7,27.6-26c8.7-9.6,17-19.6,24.4-30.3c2.4-3.7,4.9-7.3,7.3-11c0.6-1.5,1.2-3,1.6-4.6
				c1.6-5.6,3-11.3,5.6-16.5c-0.1,0.1-0.1,0.2-0.2,0.3c0.8-0.8,1.6-1.6,2.4-2.4c-3.5,1.7-7.1,3.4-10.6,5.1c3.7-0.9,7.4-1.8,11.2-2.7
				c-3.1,0.5-6.3,0.9-9.4,1.4c0.5,0.7,1.1,1.3,1.6,2c0,0.3,0,0.6,0,0.9c0,0.2,0.1,0.3,0.2,0.4c1.8,2.5,3.6,5,5.4,7.5
				c-1.2-1.9-2.4-3.8-3.6-5.7c1.8,2.9,3.3,5.9,4.6,9c0.3,0.7,0.6,1.4,1,2c0.6,1,1.2,1.4,2.2,2c6.3,1.9,12.7,3.8,19,5.7
				c9.5,2.6,19,5,28.6,7.2c15.8,3.8,31.6,7.3,47.6,10.3c28.4,5.3,56.9,9.6,85.6,12.7c15.8,1.7,31.7,3.1,47.6,4
				c19,1.2,38.1,1.6,57.1,1.9c-2.6-2.3-5.1-4.5-7.7-6.8c-2.8,10.6-5.4,21.2-7.9,31.9c-3.2,14.2-7.1,28.1-11.7,41.9
				c-0.2,0.3-0.2,0.6-0.1,1c4-1.4,8.1-2.9,12.1-4.3c3.7-1.6,7.4-3.3,11.2-4.9c7.3-3.4,14.5-7,21.5-11.1c15.7-9.1,30.1-20.2,44-31.8
				c12.1-10.1,23.9-20.6,35.8-30.9c5.8-5,11.6-10,17.6-14.8c8.2-6.6,16.6-12.8,25.2-18.9c-0.1,0.1-0.2,0.1-0.3,0.2
				c4.1-2.7,8.3-5.4,12.4-8.1c-0.1,0.1-0.2,0.1-0.3,0.2C625.6,66,637.9,59,651,53.3c10.7-4.7,21.5-8.8,32.6-12.4
				c10.9-3.5,22-6.5,33.3-8.7c4.5-0.8,9-1.6,13.5-2.4c9-1.4,18-2.3,27.1-2.8c1.3-0.1-2.8-1.6-2.2-1.4c-1.6-0.6-3.1-1.2-4.7-1.8
				c-0.8-0.3-1.6-0.6-2.5-0.7c-9.2,0.8-18.4,2-27.6,3.6c-9.2,1.6-18.3,3.7-27.2,6.1c-18.2,4.9-35.9,11.5-52.9,19.5
				c-23.6,11.1-45.8,25-66.4,41c-22.5,17.5-43.1,37.2-65.5,54.8c-11.6,9.2-23.7,17.8-36.9,24.7c-5.7,2.8-11.5,5.6-17.4,8.2
				c-5.3,3.2-10.8,6.1-16.4,8.7c0,0.3-0.1,0.6-0.1,1c2.4-9.5,5.5-18.8,9.5-27.8c4.4-11.2,9.3-22.3,14.4-33.2
				c0.3-0.7-3.4-3.5-3.6-3.7c-1-0.9-2-1.8-3.1-2.6c-0.3-0.3-0.6-0.5-1-0.5c-25.2-0.6-50.3-1.6-75.4-3.8c-25.2-2.2-50.2-5.3-75.2-9.4
				c-25.1-4.1-50-9.1-74.6-15.1c-12.4-3-24.6-6.2-36.8-9.8c-8.3-0.1-14.9-2.9-20-8.3c0.6,2.6,1.2,5.1,1.8,7.7
				c-1.3-3.3-1.4-6.5-0.4-9.6c0.4-1.4,0.7-2.7,1.2-4.1c0.2-0.9,0.4-1.8,0.5-2.6c0.5-1.5,0-2.3-1.4-2.2c-0.5-0.1-0.9,0-1.3,0.3
				c-1.5,0.7-3,1.3-4.5,2.1c-1.5,0.7-2.9,1.4-4.4,2.2c-0.5,0.2-0.8,0.4-1,0.8c-2.7,4-4.4,8.6-6.1,13.1c-0.8,2.1-1.6,4.1-2.9,6
				c-6.1,9.2-12.8,18-19.9,26.4c-17.1,20.2-37,38-59.4,52.2c-10,6.3-20.4,11.8-31.2,16.7c-7.1,3.1-14.4,5.9-21.8,8.3
				c-7.2,2.3-14.4,4-21.8,5.3c0.2,0.4,0.4,0.6,0.8,0.8c1.2,0.7,2.4,1.4,3.7,2c1.2,0.7,2.5,1.3,3.8,1.9C7.9,203.9,8.2,204,8.6,203.9z
				"/>
			<path class="st7" d="M9.6,207.9c7.5-1.5,15-3.6,22.2-6c3.7-1.4,7.4-2.7,11.1-4.1c11.2-4.4,21.9-10.1,32.3-16.2
				c10.7-6.3,20.6-13.7,30.3-21.5c11.5-9.3,22-19.8,31.8-31c8.6-9.8,16.4-20.1,23.6-31c2.1-2.2,3.5-4.7,4.3-7.5
				c0.4-1.3,0.7-2.6,1.1-3.9c0.8-3,1.5-5.9,2.5-8.9c1-3,1.9-6.6,4.8-8.5c-2.8,0.7-5.5,1.4-8.3,2.1c2.9-0.5,5.9-1.1,8.8-1.6
				c-2.9,0.3-5.8,0.7-8.7,1c2.5,0.2,5.1,0.3,7.6,0.5c-2.2-0.2-4.3-0.5-6.5-0.7c1.1,0.7,1.5,1.7,1.9,2.9c1.1,3.7,2.8,7.1,4.3,10.8
				c-0.9-2.5-1.8-5.1-2.7-7.6c1.2,3.8,2.3,7.6,3.4,11.5c0.1,0.8,0.4,1.6,0.8,2.3c0.6,1.1,1.1,1.5,2.2,2.2c6.3,1.9,12.7,3.7,19,5.6
				c9.5,2.6,19.1,5,28.7,7.2c15.8,3.7,31.7,7.2,47.7,10.2c28.4,5.3,57,9.6,85.7,12.6c15.8,1.7,31.7,3,47.6,4
				c19,1.1,38.1,1.6,57.2,1.8c-2.7-3.1-5.3-6.3-8-9.4c-1.2,5.4-2.3,10.7-3.5,16.1c0-0.1,0-0.2,0.1-0.3
				c-5.2,19.8-10.9,39.4-16.8,59.1c0.3-0.9-0.8,2.8-0.5,2.7c8.2-2.6,16.2-5.7,24-9.3c7.5-3.5,14.9-7.3,22-11.6
				c10.5-6.3,20.3-13.4,30-20.8c23.3-17.9,44.4-38.5,67.2-57.1c11.9-9.7,24.3-18.7,37.3-26.7c14.1-8.7,28.9-16.2,44.2-22.6
				c15-6.2,30.3-11.4,46.1-15.2c8.9-2.2,17.9-3.9,26.9-5.2c9-1.3,18.1-2.2,27.1-2.7c-0.2-0.4-0.4-0.7-0.9-0.9
				c-1.2-0.9-2.5-1.7-3.8-2.5c-1.3-0.8-2.6-1.6-3.9-2.4c-0.4-0.3-0.7-0.4-1.2-0.4c-9.2,0.8-18.4,2-27.5,3.6
				c-9.1,1.6-18.2,3.6-27.1,6.1c-13.6,3.7-26.8,8.3-39.8,13.7c-31.8,13-61.1,31.7-87.7,53.4c-20.7,16.8-40.1,35.1-61.2,51.4
				c-10.3,8-21,15.6-32.3,22c-11.7,6.7-24.1,12.2-36.4,17.8c-0.6,2.4-1.3,4.7-1.9,7.1c3.8-10.9,7.9-21.6,12.4-32.3
				c4.7-11.3,9.7-22.4,15.1-33.4c0-0.5-0.3-0.9-0.6-1.2c-1-1.3-2-2.5-3.1-3.8c-1-1.2-2.1-2.5-3.2-3.7c-0.3-0.4-0.6-0.7-1.1-0.8
				c-25.2-0.6-50.4-1.6-75.5-3.7c-25.2-2.2-50.3-5.3-75.2-9.3c-25.1-4-50-9-74.7-14.9c-12.4-2.9-24.7-6.1-37-9.7
				c-7.4-0.1-13.5-2.4-18.4-6.8c0.1,0.1,0.1,0.2,0.2,0.3c-1-1.8-0.8-1.5-2.4-3.1c0.8,3.4,1.5,6.7,2.3,10.1c0.1-2.7,0.2-5.3,0.2-8
				c0.3-1.4,0.7-2.8,1-4.3c0.3-0.9,0.4-1.8,0.5-2.7c0.3-1,0.2-2-0.3-3c-0.2-0.6-4.9,0.2-5,0.3c-1,0.1-4,0.1-4.9,1
				c-1.8,1.9-2.9,3.6-4,6.1c-1.1,2.6-2.1,5.2-3.1,7.9c-0.8,2.1-1.6,4.2-2.9,6.1c-6.1,9.3-12.9,18.1-20,26.6
				C118,137.8,97.9,155.7,75.4,170c-10,6.4-20.5,11.9-31.4,16.8c-7.1,3.2-14.4,5.9-21.8,8.3c-7.1,2.3-14.3,4-21.6,5.2
				c0.1,0.4,0.4,0.8,0.8,1c1.2,1,2.3,2,3.5,3c1.2,1,2.4,2,3.6,2.9C8.8,207.6,9.2,207.8,9.6,207.9z"/>
			<path class="st7" d="M10.9,204.7c15.1-3.9,29.9-8.4,44.1-15.2c11-5.3,21.6-11.3,31.8-18.2c22.8-15.4,43-34.6,60.1-56.1
				c4.1-5.1,8-10.3,11.7-15.7c3.3-3.3,5.8-7,7.3-11.2c0.6-1.5,1-2.9,1.4-4.5c1.7-6.3,2.6-13.1,6.4-18.5c-0.3,0.3-0.7,0.6-1,0.9
				c0.6-0.4,1.3-0.9,1.9-1.3c-1.3,0.7-2.6,1.3-3.9,2c0.7-0.2,1.3-0.4,2-0.6c-0.5,0-1,0.1-1.4,0.1c3.1,3.2,2.1,8.4,1.9,12.3
				c-0.1,2-0.2,4-0.1,6c0.1,1.1,0.1,2.3,0.5,3.3c1.7,4.3,9.5,4.5,12.3,5.2c44.2,11.7,88.8,21.1,134.1,27.5
				c22.2,3.1,44.4,5.6,66.7,7.3c25.4,1.9,50.8,2.7,76.3,3c-0.7-0.7-1.4-1.3-2.2-2c-4.5,11.9-9.4,23.7-14.6,35.4
				c-4.8,11.6-9.4,23.2-13.8,35c-0.1,0.4,0.1,0.6,0.5,0.5c8.9-2.4,17.4-5.5,25.7-9.5c3.9-1.8,7.8-3.8,11.6-5.7
				c7.7-4.1,14.3-8.2,21.5-13.1c21.6-14.7,40.8-32.5,60.3-49.7c20.1-17.9,40.6-35.2,63.5-49.3c12.1-7.4,24.7-13.9,37.7-19.8
				c25.2-11.1,51.5-18.7,79.1-22.7c9-1.3,18-2.2,27.1-2.6c0.5,0,0.5-0.2,0.2-0.6c-0.4-0.4-2-0.9-2.6-0.9c-9.2,0.5-18.3,1.4-27.3,2.8
				c-4.7,0.6-9.3,1.4-13.9,2.4c-9.1,1.8-18,4-26.9,6.6c-31.8,9.4-62,23.9-89.4,42.6c-22.9,15.7-43.2,34.5-63.8,52.9
				c-11.7,10.4-23.4,20.8-35.9,30.3c-6.3,4.8-12.7,9.3-19.3,13.6c-14.7,9.8-30.6,16.9-47.5,21.3c0.2,0.2,0.3,0.3,0.5,0.5
				c4.2-11.4,8.8-22.6,13.7-33.7c5.3-11.5,10.6-23,16.2-34.4c0.3-0.6-1.7-2-2.2-2c-25.4-0.3-50.7-1.2-76-3.1
				c-25.4-2-50.7-4.9-75.9-8.7c-25.4-3.8-50.7-8.6-75.7-14.2c-12.7-2.9-25.4-5.9-38-9.2c-9.2,1.1-16.4-1.3-21.6-7.1
				c0.1,0.3,0.2,0.6,0.3,0.9c-0.4-4.8,0.5-9.7,1.4-14.4c0.2-1.1,0.5-2.2,0.7-3.3c0.5-1.8,0.5-3.5-0.1-5.3c-0.1,0-0.1-0.1-0.2-0.1
				c-0.4-0.1-0.8-0.2-1.3-0.3c-0.5-0.1-2.2,0.9-2.4,1c-0.8,0.4-1.6,0.8-2.2,1.4c-3.5,3.6-4.6,8.9-5.8,13.6c-0.6,2.5-1.2,5-2.2,7.4
				c-1.9,4.6-4.5,8.7-7.9,12.5c-3.6,5.3-7.5,10.4-11.6,15.4c-16.9,21.1-36.8,39.9-59.4,55c-10,6.7-20.6,12.6-31.5,17.8
				c-13.9,6.6-28.6,11-43.5,14.9c-0.6,0.2,0.4,0.8,0.4,0.8C9.3,204.2,10.3,204.9,10.9,204.7z"/>
			<path class="st7" d="M9.2,206c7.6-1.5,15-3.5,22.3-6c3.7-1.4,7.4-2.7,11.1-4.1c11.2-4.4,21.9-10,32.3-16.1
				c10.6-6.3,20.6-13.6,30.2-21.4c11.5-9.3,22-19.8,31.8-30.9c8.6-9.8,16.4-20,23.6-30.9c2.1-2.2,3.5-4.7,4.4-7.5
				c0.4-1.3,0.7-2.6,1.1-3.9c1.5-5.7,2.8-11.8,6.3-16.6c-0.1,0.1-0.2,0.2-0.3,0.3c0.4-0.3,0.8-0.5,1.2-0.8
				c-3.9,1.3-7.8,2.6-11.6,3.8c4-1.1,7.9-2.1,11.9-3.2c-4.1,0.8-8.3,1.7-12.4,2.5c4.2,5.3,8.4,10.6,12.6,15.9
				c0.3,0.7,0.7,1.3,1.1,1.8c2.6,2.5,10,3.6,11.3,4c31.2,9.3,63.3,16.2,95.3,22.1c28.4,5.2,56.9,9.2,85.6,12
				c31.7,3.1,63.4,4.4,95.2,4.9c-3.4-3.5-6.7-7.1-10.1-10.6c-1.6,7.8-3.2,15.6-4.8,23.4c-3.4,18.1-7.7,35.9-12.8,53.6
				c-0.2,0.4-0.2,0.9-0.1,1.3c8.1-2.5,15.9-5.6,23.5-9.3c7.3-3.4,14.5-7.2,21.5-11.3c10.4-6.1,20.3-13.1,29.9-20.4
				c23.4-17.8,44.5-38.4,67.3-56.9c11.9-9.7,24.3-18.7,37.4-26.8c14.1-8.7,28.9-16.2,44.2-22.6c15-6.3,30.3-11.4,46.1-15.3
				c8.9-2.2,17.9-3.9,26.9-5.3c9-1.3,18.1-2.3,27.2-2.8c-0.3-0.4-0.7-0.8-1.2-1c-1.7-0.9-3.3-1.9-5-2.7c-1.7-0.9-3.4-1.8-5.1-2.6
				c-0.5-0.3-1-0.5-1.5-0.4c-9.3,0.9-18.5,2.1-27.6,3.8c-9.2,1.7-18.3,3.8-27.3,6.3c-13.6,3.8-26.9,8.6-40,14
				c-31.9,13.3-61.2,32.2-87.9,53.9c-20.5,16.6-39.9,34.6-61,50.4c-10,7.5-20.4,14.5-31.5,20.3c-5.5,2.8-11,5.5-16.5,8.2
				c-5,3.1-10.1,5.9-15.4,8.6c-0.8,2.9-1.6,5.8-2.4,8.7c3.5-10.7,7.4-21.2,11.6-31.7c0,0.1-0.1,0.2-0.1,0.3
				c4.6-11.3,9.6-22.4,14.9-33.4c-0.1-0.5-0.4-1-0.8-1.3c-1.3-1.4-2.6-2.9-3.9-4.2c-1.3-1.4-2.7-2.8-4-4.1c-0.3-0.4-0.8-0.7-1.3-0.9
				c-25.1-0.6-50.2-1.7-75.3-3.9c-28.2-2.5-56.3-6.3-84.3-11.2c-24.9-4.4-49.6-9.7-74.2-16c-12.2-3.1-24.3-6.5-36.2-10.6
				c-6.1-2.1-8-1.6-11.3-5.2c1,4.2,2,8.4,3.1,12.6c-0.4-5.4-0.1-10.7,0.9-15.9c0.3-1,0.3-2,0-3c-0.1-0.5-7.1,1.2-7,1.2
				c-1.8,0.4-3.6,0.8-5.4,1.3c-0.5,0.1-1,0.3-1.4,0.6c-2,2.4-3.4,4.7-4.6,7.6c-1,2.4-2.1,4.8-3.2,7.3c-0.9,2-1.9,3.8-3.3,5.5
				c-2.4,3.4-4.9,6.9-7.3,10.3c-5,6.7-10.2,13.1-15.8,19.3c-16.2,18.1-34.8,33.8-55.3,46.8c-9.9,6.3-20.4,11.7-31.1,16.5
				c-7.1,3.1-14.3,5.8-21.7,8.1c-7.1,2.2-14.3,3.9-21.7,5.1c0.2,0.5,0.6,0.8,1.1,1.1c1.5,1.1,3.1,2.2,4.7,3.3
				c1.6,1.1,3.2,2.2,4.8,3.2C8.2,205.8,8.7,206,9.2,206z"/>
			<path class="st7" d="M9.2,205.1c7.5-1.6,14.9-3.6,22.2-6c1.9-0.7,3.8-1.4,5.7-2.1c7.5-2.8,14.8-6,22-9.6
				c24.1-12,46-28.2,65.1-47.1c9.1-9,17.7-18.8,25.5-29c5.3-7,10.3-14.2,15-21.6c0.3-0.7,0.5-1.4,0.8-2c1-2.7,1.6-5.6,2.3-8.5
				c0.7-2.8,1.6-5.6,2.7-8.3c0.6-1.7,1.5-3.1,2.9-4.3c-1.9,0.9-3.8,1.7-5.7,2.6c1.9-0.6,3.8-1.3,5.7-1.9c-1.8,0.5-3.5,1-5.3,1.5
				c3,0.8,2.8,4.8,3.1,7c0.2,1.7,1.5,8.2,2.6,11.3c0.6,1.8,0.8,1.7,2.2,2.6c5.5,3.7,11.9,5.6,19.1,5.8c12.7,3.4,25.5,6.5,38.3,9.4
				c31.4,7.1,63.2,12.9,95.1,17.1c19,2.5,38,4.6,57.2,6.1c25.4,2,50.8,2.8,76.2,3.2c-1.5-1.5-3-3-4.6-4.5
				c-2.2,8.5-4.7,16.8-7.6,25.1c-5.3,15.8-10.7,31.6-16.3,47.3c-0.1,0.3-0.1,0.7,0.2,0.6c8.2-2.4,16.2-5.4,24-8.9
				c7.7-3.5,15.1-7.4,22.3-11.8c10.4-6.3,20.3-13.4,29.9-20.9c20.2-15.8,38.8-33.5,58.3-50c10.9-9.3,22.1-18.2,34-26.2
				c15.7-10.7,32.4-20,49.8-27.7c16.9-7.5,34.5-13.5,52.5-17.9c8.9-2.2,17.8-3.9,26.9-5.2c9-1.3,18-2.2,27.1-2.7
				c1-0.1-1.6-1.3-1.3-1.1c-1-0.4-1.9-0.9-2.9-1.2c-0.5-0.3-1-0.4-1.6-0.5c-9.2,0.7-18.3,1.7-27.4,3.2c-9.1,1.5-18.2,3.4-27.1,5.7
				c-13.5,3.6-26.9,7.9-39.8,13.2c-28.3,11.5-54.9,27.2-79,46c-19.6,15.2-37.6,32.2-56.5,48.3c-14.7,12.6-30,24.7-46.5,34.9
				c-6.6,4-13.4,7.6-20.5,10.7c-6.6,2.9-13.4,5.5-20.2,7.7c0.1,0.2,0.2,0.4,0.2,0.6c4.4-13.3,9.5-26.4,15.2-39.3
				c3.6-8.5,7.3-16.9,11.3-25.2c0.3-0.6-1.2-1.7-1.6-2c-0.5-0.5-1.1-1.1-1.7-1.6c-0.4-0.4-0.8-0.7-1.3-1
				c-25.3-0.5-50.5-1.4-75.8-3.5c-25.3-2.1-50.5-5.1-75.6-9c-31.7-5-63.2-11.4-94.3-19.2c-12.9-2.7-25.3-6.7-37.4-11.9
				c-0.4-1.1-0.9-2.2-1.4-3.2c0.2,1.5,0.5,3.1,0.7,4.6c-0.3-2.1-0.3-4.3,0.1-6.4c0.2-1.4,0.4-2.8,0.8-4.2c0.2-1,0.4-1.9,0.7-2.9
				c0.5-1.6,0.5-3.1-0.1-4.6c-0.1,0-0.2-0.1-0.2-0.1c-0.4-0.1-0.8-0.2-1.2-0.3c-0.7-0.2-3.1,1.2-3.5,1.4c-1,0.4-2.7,0.9-3.3,1.7
				c-2.5,3.2-3.8,7.1-5.1,10.9c-0.9,2.6-1.6,5.2-2.7,7.7c-3,7-8.3,13-12.8,19c-15,20.1-32.6,38-52.6,53.1
				c-9.7,7.3-19.8,13.9-30.4,19.8c-5.2,3-10.5,5.6-15.9,8c-13.9,6.5-28.4,11.2-43.4,14C3,201.8,5,202.9,5,202.9
				c0.9,0.6,1.8,1.1,2.7,1.6C8.2,204.8,8.7,205,9.2,205.1z"/>
			<path class="st7" d="M11.8,204.5c11.2-2.9,22.3-6.1,33.1-10.4c11.3-4.4,22-10.2,32.4-16.4c10.7-6.4,20.7-13.8,30.3-21.7
				c11.5-9.4,22.1-20,31.8-31.3c8.6-9.9,16.4-20.3,23.6-31.2c2.1-2.2,3.5-4.8,4.4-7.6c0.4-1.3,0.8-2.7,1.1-4.1
				c1.5-5.8,2.5-12.1,6.1-17.1c-0.3,0.3-0.7,0.6-1,0.9c0.6-0.4,1.3-0.9,1.9-1.3c-1.3,0.7-2.6,1.4-3.9,2c0.4-0.1,0.8-0.2,1.1-0.3
				c-0.2,0-0.4-0.1-0.6-0.1c1.1,0.9,1.7,2.1,1.8,3.5c0.2,3.2,0.2,6.4,0,9.5c-0.1,1.9-0.3,3.7-0.2,5.7c0.1,1.5,0,2,0.5,3.1
				c1.8,4.2,9.7,4.4,12.4,5.2c44.2,11.8,89,21.2,134.4,27.6c22.2,3.1,44.5,5.6,66.8,7.3c25.4,1.9,50.9,2.7,76.4,3
				c-0.6-0.6-1.1-1.2-1.7-1.8c-5.4,11.6-10.7,23.4-15.7,35.2c-4.8,11.4-9.4,23-13.8,34.6c-0.1,0.3-0.1,0.9,0.4,0.7
				c8.8-2.4,17.4-5.6,25.7-9.5c5.9-2.6,11.6-5.6,17.2-8.9c10.9-6.2,21.1-13.3,31.1-20.9c20.4-15.7,39.1-33.5,58.5-50.3
				c8.6-7.4,17.3-14.7,26.4-21.5c11.6-8.6,23.8-16.4,36.3-23.5c24.2-13.6,50.6-23.5,77.5-30.1c8.9-2.1,17.8-3.8,26.9-5.1
				c9-1.3,18-2.1,27.1-2.6c0.6,0,0.4-0.3,0.2-0.6c-0.3-0.4-2-0.8-2.5-0.7c-9.2,0.5-18.3,1.4-27.4,2.8c-9.1,1.4-18.2,3.1-27.1,5.3
				c-13.6,3.3-26.9,7.5-39.9,12.7c-26.8,10.5-52,24.8-75,42c-24.5,18.4-46.2,40-69.4,59.9c-12.1,10.3-24.6,20.1-38,28.5
				c-7.1,4.5-14.5,8.6-22.2,12.2c-8.2,3.9-16.7,7-25.5,9.3c0.1,0.2,0.3,0.5,0.4,0.7c4.3-11.5,8.9-22.9,13.9-34.2
				c5.1-11.6,10.7-23.1,16.7-34.3c0.3-0.6-1.2-1.7-1.7-1.8c-25.4-0.3-50.8-1.1-76.1-3.1c-25.4-2-50.8-4.9-76-8.6
				c-25.5-3.8-50.9-8.6-76-14.2c-12.8-2.9-25.5-5.9-38.2-9.2c-9.2,0.9-16.4-1.5-21.8-7.3c0.1,0.3,0.2,0.5,0.3,0.8
				c-0.4-4.3,0.3-8.5,1.2-12.7c0.3-1.7,0.7-3.4,1.1-5c0.5-1.8,0.6-3.7,0-5.5c-0.1,0-0.1-0.1-0.2-0.1c-0.4-0.1-0.8-0.2-1.2-0.4
				c-0.5-0.1-2.2,0.9-2.4,1c-0.8,0.4-1.6,0.8-2.2,1.4c-3.5,3.6-4.6,8.9-5.7,13.6c-0.6,2.5-1.2,5-2.1,7.4c-1.9,4.6-4.5,8.7-7.9,12.5
				c-3.6,5.3-7.5,10.5-11.6,15.4c-16.9,21.2-36.8,40-59.3,55.1c-10,6.7-20.6,12.7-31.5,17.9c-13.9,6.7-28.5,11-43.3,15
				c-0.6,0.2,0.4,0.7,0.4,0.8C10.3,204.2,11.2,204.7,11.8,204.5z"/>
			<path class="st7" d="M8.8,206.8c7.6-1.5,15-3.5,22.3-6c3.7-1.4,7.4-2.7,11.1-4.1c11.2-4.4,21.9-10,32.3-16.1
				c10.6-6.3,20.6-13.6,30.2-21.4c11.5-9.3,22-19.8,31.7-30.9c8.6-9.8,16.4-20.1,23.6-30.9c2.1-2.2,3.5-4.7,4.3-7.5
				c0.4-1.3,0.7-2.6,1.1-3.9c1.5-5.7,2.8-11.8,6.3-16.6c-0.1,0.1-0.2,0.2-0.2,0.3c0.4-0.3,0.8-0.5,1.2-0.8c-3.2,0.9-6.4,1.8-9.6,2.8
				c3.3-0.8,6.6-1.5,10-2.3c-3.3,0.5-6.6,1.1-9.9,1.6c3.4,0.7,6.7,1.4,10.1,2c-2.7-0.8-5.4-1.5-8.1-2.3c0.5,0.5,0.7,0.9,0.9,1.5
				c1.5,3.7,4.2,8,5.7,10.9c-1.2-2.7-2.4-5.5-3.6-8.2c1.7,3.9,3.2,7.9,4.6,11.9c0.2,0.8,0.5,1.6,1,2.3c0.6,1.1,1.1,1.5,2.3,2.2
				c6.4,1.9,12.7,3.7,19.1,5.6c9.5,2.6,19.1,5,28.7,7.2c15.8,3.8,31.7,7.2,47.7,10.2c28.4,5.3,56.9,9.6,85.6,12.6
				c15.8,1.7,31.7,3,47.6,4c19,1.1,38.1,1.6,57.1,1.8c-2.8-3.4-5.7-6.7-8.5-10.1c-2.2,10.9-4.6,21.7-7.2,32.5
				c-3.5,14.9-7.6,29.8-12.2,44.4c-0.2,0.4-0.2,0.8-0.1,1.2c8.2-2.6,16.1-5.7,23.8-9.5c7.4-3.5,14.6-7.3,21.6-11.5
				c10.4-6.2,20.2-13.2,29.8-20.6c23.3-17.8,44.4-38.4,67.2-56.9c11.9-9.7,24.3-18.7,37.3-26.7c14.1-8.7,28.9-16.2,44.2-22.6
				c15-6.3,30.3-11.4,46.1-15.3c8.9-2.2,17.9-3.9,26.9-5.3c9-1.3,18.1-2.3,27.2-2.7c-0.2-0.4-0.5-0.7-1-0.9
				c-1.4-0.9-2.8-1.8-4.2-2.7c-1.4-0.9-2.8-1.7-4.3-2.5c-0.4-0.3-0.8-0.5-1.3-0.4c-9.2,0.8-18.4,2.1-27.6,3.7
				c-9.2,1.7-18.2,3.7-27.2,6.2c-13.6,3.7-26.9,8.5-39.9,13.9c-31.9,13.2-61.2,31.9-87.9,53.6c-20.6,16.7-40,34.8-61.1,50.8
				c-10.1,7.7-20.6,14.8-31.7,21c-5.8,3.1-11.6,6.1-17.4,9c-5.4,3.1-11,6-16.7,8.7c-0.2,1-0.5,2-0.7,3c3-9.1,6.3-18.1,10.1-27
				c4.6-11.2,9.5-22.3,14.8-33.3c-0.1-0.5-0.3-0.9-0.7-1.3c-1.1-1.4-2.2-2.7-3.3-4c-1.1-1.3-2.3-2.7-3.4-3.9
				c-0.3-0.4-0.7-0.7-1.1-0.9c-28.3-0.7-56.6-2-84.8-4.7c-28.2-2.7-56.4-6.5-84.4-11.7c-24.9-4.6-49.8-10-74.3-16.5
				c-6.1-1.7-12.2-3.4-18.2-5.1c-7-0.4-13.1-2.5-18.3-6.4c-0.5-0.3-0.8-0.6-1.1-1.1c-0.6-0.9-1.4-1.5-2.4-1.9
				c1,3.6,2.1,7.3,3.1,10.9c-0.4-4.5,0.1-8.9,1.3-13.2c0.5-1.4,0.4-2.8-0.1-4.2c-0.2-0.6-5.7,0.6-5.8,0.6c-1.5,0.3-3,0.5-4.5,0.9
				c-0.5,0-0.8,0.2-1.1,0.5c-1.8,2-3,3.7-4.1,6.2c-1.1,2.5-2.1,5-3.1,7.5c-0.8,2-1.6,4-2.9,5.8c-6.2,9.1-12.8,17.9-19.9,26.3
				c-17.1,20.2-37.1,37.9-59.4,52c-10,6.3-20.5,11.8-31.2,16.6c-7.1,3.1-14.4,5.9-21.8,8.2c-7.1,2.2-14.3,4-21.7,5.2
				c0.1,0.4,0.4,0.8,0.9,1.1c1.3,1.1,2.6,2.1,3.9,3.2c1.3,1,2.6,2.1,4,3.1C7.9,206.5,8.3,206.7,8.8,206.8z"/>
		</g>
	</g>
</g>
<g>
	<g>
		<g>
			<path class="st7" d="M-147.1-64c0.9,0-0.7-1.4-0.7-1.4c-0.6-0.6-1.3-1.3-2-1.9c-0.3-0.4-0.7-0.6-1.2-0.8c-0.9,0,0.7,1.4,0.7,1.4
				c0.6,0.6,1.3,1.3,2,1.9C-148-64.5-147.6-64.2-147.1-64z"/>
			<path class="st7" d="M-146.7-60c0.7,0-1.1-2.8-1.8-2.8C-149.2-62.8-147.3-60-146.7-60z"/>
			<path class="st7" d="M-149.4-66.7c-0.1-0.5-0.4-0.8-0.8-1.1c-1.2-1.2-2.5-2.4-3.8-3.5c-1.3-1.2-2.6-2.3-3.9-3.4
				c-0.3-0.4-0.7-0.6-1.2-0.7c0.1,0.5,0.4,0.8,0.8,1.1c1.2,1.2,2.5,2.4,3.8,3.5c1.3,1.2,2.6,2.3,3.9,3.4
				C-150.3-67-149.9-66.8-149.4-66.7z"/>
			<path class="st7" d="M-149.2-64.6c0-0.4-0.2-0.7-0.5-1c-0.9-1.1-1.8-2.1-2.8-3.2c-0.9-1-1.9-2.1-2.9-3.1c-0.2-0.4-0.6-0.6-1-0.6
				c0,0.4,0.2,0.7,0.5,1c0.9,1.1,1.8,2.1,2.8,3.2c0.9,1,1.9,2.1,2.9,3.1C-149.9-64.9-149.6-64.7-149.2-64.6z"/>
			<path class="st7" d="M-146.5-64.5c0.7,0-0.4-1-0.4-1c-0.4-0.4-1.5-1.6-2.2-1.6c-0.7,0,0.4,1,0.4,1
				C-148.2-65.7-147.2-64.5-146.5-64.5z"/>
			<path class="st7" d="M-149.5-67.3c-0.1-0.4-0.3-0.7-0.6-0.9c-1-0.9-2-1.8-3.1-2.7c-1-0.9-2.1-1.7-3.2-2.6c-0.3-0.3-0.6-0.5-1-0.5
				c0.1,0.4,0.3,0.7,0.6,0.9c1,0.9,2,1.8,3.1,2.7c1,0.9,2.1,1.7,3.2,2.6C-150.2-67.5-149.9-67.3-149.5-67.3z"/>
			<path class="st7" d="M-148.5-63.1c0-0.5-0.2-0.8-0.6-1.2c-1-1.3-2-2.5-3-3.7c-1-1.2-2.1-2.5-3.1-3.6c-0.3-0.4-0.6-0.7-1-0.8
				c0,0.5,0.2,0.8,0.6,1.2c1,1.3,2,2.5,3,3.7c1,1.2,2.1,2.5,3.1,3.6C-149.3-63.4-149-63.2-148.5-63.1z"/>
			<path class="st7" d="M-147.6-65.9c0.6,0-0.2-0.8-0.2-0.8c-0.4-0.4-1.1-1.1-1.7-1.1c-0.6,0,0.2,0.8,0.2,0.8
				C-148.9-66.6-148.1-65.9-147.6-65.9z"/>
			<path class="st7" d="M-148.9-65.1c-0.1-0.5-0.4-1-0.9-1.3c-1.3-1.4-2.6-2.8-4-4.2c-1.3-1.4-2.7-2.7-4.1-4.1
				c-0.3-0.4-0.8-0.7-1.3-0.9c0.1,0.5,0.4,1,0.9,1.3c1.3,1.4,2.6,2.8,4,4.2c1.3,1.4,2.7,2.7,4.1,4.1
				C-149.8-65.5-149.4-65.2-148.9-65.1z"/>
			<path class="st7" d="M-149.1-65.9c0.9,0-0.8-1.5-0.8-1.5c-0.7-0.7-1.5-1.4-2.2-2.1c-0.4-0.4-0.8-0.7-1.3-1
				c-0.9,0,0.8,1.5,0.8,1.5c0.7,0.7,1.5,1.4,2.2,2.1C-150-66.4-149.6-66.1-149.1-65.9z"/>
			<path class="st7" d="M-146.7-66c0.6,0-0.1-0.7-0.2-0.8c-0.3-0.3-1-0.8-1.5-0.8c-0.6,0,0.1,0.7,0.2,0.8
				C-147.8-66.5-147.2-66-146.7-66z"/>
			<path class="st7" d="M-149.3-64.3c-0.1-0.5-0.3-0.9-0.7-1.2c-1.1-1.3-2.2-2.7-3.3-4c-1.1-1.3-2.2-2.6-3.4-3.9
				c-0.3-0.4-0.7-0.7-1.1-0.8c0.1,0.5,0.3,0.9,0.7,1.2c1.1,1.3,2.2,2.7,3.3,4c1.1,1.3,2.2,2.6,3.4,3.9
				C-150.1-64.7-149.8-64.4-149.3-64.3z"/>
		</g>
	</g>
</g>
<g>
	<g>
		<g>
			<g>
				<path class="st7" d="M710.3,35.4c3.6-2.6,6.3-4.5,9.7-7.6c3.2-3,6.1-6.3,8.8-9.8c2.7-3.6,5.1-7.4,7.2-11.4
					c0.2-0.3-3.2,0.1-3.1,0c-0.7,0.1-2.6,0.1-3,0.8c-2.2,3.8-4.6,7.4-7.4,10.8c-5.1,6.4-11.1,11.6-18,15.8c-0.7,0.5,1.8,0.9,2,1
					C707.4,35.2,709.4,36,710.3,35.4z"/>
				<path class="st7" d="M711,39c5.2-3.9,10.1-7.9,14.4-12.8c4.6-5.2,8.1-10.9,11.4-16.9c0.2-0.4-2-1.1-2.3-0.5
					c-4.2,7.8-9.5,14.8-16,21c-3.1,2.8-6.3,5.4-9.7,7.9C708.2,38.2,710.6,39.3,711,39z"/>
				<path class="st7" d="M707.3,34c5.2-3.6,10.2-7.3,14.4-12c1.4-1.7,2.8-3.4,4.2-5c2.7-3.5,5.1-7.3,7.2-11.2
					c-0.5-0.2-1-0.2-1.5-0.1c-1.8,0.2-3.7,0.5-5.5,0.8c-1.8,0.3-3.6,0.6-5.4,1c-0.5,0-1,0.2-1.4,0.5c-3.5,5-7.1,9.9-11.6,14.1
					c-1.5,1.3-3,2.6-4.5,3.9c-3.1,2.1-6.3,4.1-9.5,5.9c0.4,0.3,0.8,0.5,1.4,0.5c1.8,0.3,3.6,0.6,5.4,0.9c1.8,0.3,3.6,0.5,5.4,0.8
					C706.4,34.3,706.9,34.2,707.3,34z"/>
				<path class="st7" d="M707.5,35.5c5.2-3.6,10.1-7.2,14.3-12c1.4-1.7,2.8-3.4,4.2-5.1c2.7-3.6,5.1-7.3,7.2-11.3
					c-0.3-0.2-0.7-0.3-1.1-0.2c-1.3,0.1-2.6,0.2-3.9,0.3c-0.7,0.1-4.3,0-4.9,0.9c-3.5,5.2-7.1,10.3-11.6,14.6
					c-1.5,1.4-3,2.7-4.5,4.1c-3,2.2-6.1,4.1-9.3,5.9c0.2,0.3,0.5,0.5,0.9,0.6c1.3,0.4,2.5,0.8,3.8,1.1
					C703.3,34.8,706.7,36.2,707.5,35.5z"/>
				<path class="st7" d="M710.8,34.6c5.1-3.7,10-7.5,14.1-12.2c1.4-1.7,2.8-3.4,4.2-5.1c2.7-3.6,5.1-7.4,7.2-11.5
					c0.4-0.7-1.2-0.3-1.3-0.3c-0.6,0.1-3,0.3-3.4,0.9c-3.4,5.6-6.9,11.1-11.4,15.9c-4.2,4.4-8.7,7.9-13.7,11.4c-0.6,0.4,1,0.7,1,0.7
					C708.2,34.4,710.2,35,710.8,34.6z"/>
				<path class="st7" d="M707.3,33.3c5.3-3.6,10.2-7.2,14.5-12c1.4-1.7,2.8-3.4,4.2-5.1c2.7-3.6,5.1-7.3,7.3-11.3
					c-0.4-0.2-0.8-0.2-1.3,0c-1.5,0.3-3.1,0.6-4.6,1c-1.5,0.3-3,0.7-4.5,1.1c-0.5,0.1-0.8,0.2-1.1,0.6c-3.5,5.1-7,10.1-11.5,14.4
					c-1.5,1.4-3,2.7-4.5,4.1c-3.1,2.2-6.3,4.3-9.6,6.1c0.3,0.3,0.7,0.4,1.1,0.4c1.5,0.2,3,0.4,4.4,0.5c1.5,0.2,3,0.3,4.5,0.4
					C706.5,33.6,706.9,33.6,707.3,33.3z"/>
				<path class="st7" d="M708.1,36.9c5.2-3.6,10.1-7.3,14.3-12.1c1.4-1.7,2.8-3.4,4.2-5.1c2.7-3.6,5.1-7.3,7.2-11.3
					c0.1-0.2-5.4-0.3-5.2-0.3c-1.4,0-2.8,0-4.1,0.1c-0.4,0-0.8,0.1-1.1,0.3c-3.5,5.2-7.1,10.3-11.7,14.6c-1.5,1.4-3,2.7-4.5,4.1
					c-2.9,2.2-6,4.1-9.2,5.8c0.2,0.3,0.5,0.6,1,0.7c1.3,0.6,2.7,1.1,4,1.6c1.3,0.5,2.7,1,4.1,1.4C707.3,37,707.7,37,708.1,36.9z"/>
				<path class="st7" d="M709.5,33.1c5.1-3.7,10-7.5,14.1-12.3c1.4-1.7,2.8-3.4,4.2-5.1c2.7-3.6,5.1-7.4,7.2-11.5
					c0.4-0.7-1.2-0.2-1.2-0.2c-0.7,0.2-2.7,0.5-3.1,1.2c-3.3,5.6-6.7,11-11.2,15.8c-4.1,4.4-8.7,8-13.6,11.5c-0.6,0.4,1,0.6,0.9,0.6
					C707.3,33.2,708.9,33.5,709.5,33.1z"/>
				<path class="st7" d="M707.7,35.3c5.2-3.6,10.1-7.3,14.3-12.1c1.4-1.7,2.8-3.4,4.2-5.1c2.7-3.5,5.1-7.3,7.2-11.2
					c-0.5-0.2-1-0.3-1.5-0.2c-1.9,0.1-3.8,0.2-5.6,0.3c-1.9,0.1-3.7,0.3-5.6,0.5c-0.5,0-1,0.1-1.5,0.4c-3.5,5-7,9.9-11.5,14.1
					c-1.5,1.3-3,2.6-4.5,3.9c-3,2.1-6.2,4-9.4,5.7c0.4,0.4,0.8,0.6,1.4,0.7c1.8,0.5,3.7,1,5.5,1.5c1.8,0.5,3.7,0.9,5.5,1.3
					C706.7,35.4,707.2,35.5,707.7,35.3z"/>
				<path class="st7" d="M708.1,34c3.5-2.5,6.4-4.5,9.6-7.5c3.2-3,6.1-6.2,8.8-9.7c2.7-3.6,5.1-7.4,7.2-11.3
					c-0.2-0.2-0.5-0.2-0.8-0.1c-1,0.2-1.9,0.4-2.9,0.6c-0.8,0.2-3,0.4-3.6,1.2c-3,5.5-7,10.2-12,14.1c-3.5,4.9-7.9,8.8-13.2,11.6
					c-0.7,0.5,2.2,0.9,2.4,0.9c1,0.2,2,0.3,3,0.4C707.2,34.2,707.7,34.3,708.1,34z"/>
				<path class="st7" d="M710.4,32.8c5-3.7,9.9-7.5,14-12.2c1.4-1.7,2.8-3.4,4.2-5.2c2.7-3.6,5.1-7.5,7.2-11.5
					c0.4-0.7-1.3-0.1-1.2-0.1c-0.7,0.2-2.7,0.5-3.1,1.2c-3.3,5.6-6.7,11.1-11.2,15.9c-4.1,4.3-8.6,8-13.5,11.5
					c-0.6,0.4,0.9,0.6,0.9,0.6C708.4,32.9,709.8,33.2,710.4,32.8z"/>
				<path class="st7" d="M707.2,36c5.2-3.6,10.1-7.2,14.3-12c1.4-1.7,2.8-3.4,4.2-5.1c2.7-3.5,5.1-7.3,7.2-11.2
					c-0.4-0.2-0.8-0.3-1.2-0.3c-1.6,0-3.1,0-4.7,0.1c-1.6,0-3.1,0.1-4.7,0.2c-0.5,0-0.9,0.1-1.2,0.3c-3.5,5.1-7,10.1-11.6,14.4
					c-1.5,1.3-3,2.7-4.5,4c-3,2.1-6.1,4.1-9.3,5.8c0.3,0.4,0.6,0.6,1.1,0.7c1.5,0.6,3,1.1,4.5,1.5c1.5,0.5,3,1,4.6,1.4
					C706.3,36.1,706.7,36.1,707.2,36z"/>
			</g>
		</g>
	</g>
	<g>
		<g>
			<g>
				<path class="st7" d="M698.7,41c6.8-1.5,13.5-3.2,20.2-4.9c7.8-2,15.7-3.9,23.7-4.4c6.3-0.4,12.4,0.1,18.5,1.6
					c14.9,3.5,26.6,11.4,37.3,23.2c0.7,0.8,0.6,0,0.4-0.7c-0.4-1.2-1.1-2.9-2.1-3.8c-3.7-3.7-7.4-7.2-11.7-10.2
					c-8.5-6-18.1-10.2-28.4-12.2c-9.8-1.9-19.5-1.4-29.2,0.4c-4.6,0.9-9.1,2-13.6,3.2c-6.5,1.7-13,3.2-19.6,4.4
					c-0.8,0.2,0.9,1.2,0.9,1.2c0.8,0.5,1.5,1,2.3,1.5C697.8,40.7,698.2,40.9,698.7,41z"/>
				<path class="st7" d="M699.3,44.9c6.8-1.6,13.6-3.4,20.4-5.1c7.8-2,15.6-3.9,23.7-4.3c6.2-0.4,12.3,0.2,18.3,1.7
					c14.7,3.7,26.3,11.7,36.8,23.6c0.5,0.6,0.6,0,0.5-0.5c-0.2-0.9-0.6-2.2-1.3-2.9c-4.1-4.4-8.3-8.3-13.2-11.9
					c-6.4-4.6-14.2-8.4-21.9-10.3c-3.9-1-7.8-1.7-11.8-2.1c-5.4-0.5-10.9-0.1-16.3,0.7c-5.7,0.9-11.4,2.2-17,3.6
					c-6.8,1.7-13.5,3.5-20.3,5.2C696.6,42.8,698.8,45,699.3,44.9z"/>
				<path class="st7" d="M696.2,38.7c8-1.6,15.8-3.6,23.7-5.6c3.4-0.9,6.8-1.6,10.2-2.3c4.5-0.9,9-1.4,13.5-1.5c-0.1,0-0.3,0-0.4,0
					c2.2,0.1,4.4,0.1,6.6,0.2c-0.1,0-0.3,0-0.4,0c4.1,0.5,8.1,1,12,2c4.9,1.3,9.6,3.2,14.1,5.5c3.6,1.8,7,3.9,10.3,6.4
					c4.1,3.1,7.6,6.5,11.1,10.2c0.3,0.3,0.4,0.3,0.3-0.2c-0.3-1-0.7-1.9-1.2-2.8c-0.9-1.8-1.7-3.6-2.6-5.3c-0.4-0.9-0.9-1.8-1.5-2.7
					c-4.3-3.4-8.5-6.5-13.2-9.1c-4.7-2.6-9.6-4.8-14.7-6.5c-6.1-2-12.6-3.3-19-3.7c-8-0.5-15.8,0-23.7,1.4c-5.7,1-11.4,2.4-17,3.7
					c-2.2,0.5-4.5,1.1-6.7,1.6c-4.2,0.7-8.5,1.4-12.7,1.9c0.2,0.4,0.6,0.8,1,1c1.5,1,3,1.9,4.5,2.8c1.5,0.9,3,1.8,4.5,2.7
					C695.3,38.6,695.7,38.7,696.2,38.7z"/>
				<path class="st7" d="M696.5,40.6c4.5-0.9,8.9-1.9,13.4-3c4.5-1.2,9.1-2.4,13.6-3.5c11.6-2.7,23.3-4,35.2-1.3
					c6.9,1.6,13.5,4.1,19.7,7.7c3.5,2,6.8,4.3,9.9,6.9c3.1,2.6,6,5.4,8.6,8.5c0.9,1-0.7-3.3-0.5-2.6c-0.6-1.6-1.3-3.1-1.9-4.7
					c-0.3-0.8-0.7-1.6-1.2-2.4c-4.1-3.5-8.1-6.7-12.6-9.5c-4.5-2.7-9.3-5.1-14.2-6.8c-6.1-2.2-12.4-3.6-18.9-4.2
					c-7.7-0.7-15.4-0.2-23.1,1.1c-5.7,1-11.4,2.4-17,3.7c-2.3,0.6-4.5,1.1-6.8,1.7c-4.2,0.8-8.3,1.5-12.5,2c0.1,0.4,0.3,0.7,0.7,0.9
					c1.1,0.9,2.1,1.7,3.2,2.6c1.1,0.8,2.2,1.7,3.3,2.5C695.7,40.4,696.1,40.6,696.5,40.6z"/>
				<path class="st7" d="M699.4,40.4c9-2.1,17.8-4.6,26.8-6.7c4.5-1.1,9-1.9,13.6-2.5c5.2-0.8,10.4-0.5,15.6,0.8
					c5.1,0.1,9.9,1.2,14.6,3.2c3.8,1.5,7.3,3.3,10.8,5.4c3.4,2.1,6.7,4.5,9.7,7.1c3,2.7,5.8,5.5,8.4,8.7c0.4,0.5,0.5,0,0.5-0.3
					c0.1-0.5-0.9-2-1.3-2.4c-3.6-3.8-7.2-7.4-11.4-10.6c-3.3-2.5-6.8-4.7-10.5-6.6c-6.4-3.3-13.5-5.9-20.7-7
					c-8.8-1.3-17.5-0.9-26.2,0.7c-4.6,0.9-9.1,2-13.6,3.2c-6.5,1.6-12.9,3.2-19.4,4.7c-0.7,0.2,0.6,0.9,0.6,0.9
					C697.4,39.5,698.8,40.6,699.4,40.4z"/>
				<path class="st7" d="M696.1,38.1c4.5-0.8,9-1.8,13.5-2.9c4.5-1.2,9.1-2.4,13.6-3.5c10.8-2.4,21.3-3.9,32.2-2
					c8,1.4,15.7,4.2,22.7,8.2c3.5,2,6.8,4.3,10,6.8c3.1,2.6,6,5.3,8.7,8.4c0.9,0.9-0.9-3-0.6-2.4c-0.7-1.4-1.4-2.7-2.1-4.1
					c-0.3-0.7-0.7-1.4-1.2-2.1c-3.3-2.7-6.6-5.4-10.1-7.7c-4.4-2.9-9.3-5.3-14.2-7.2c-8.9-3.5-18.5-5.6-28.1-5.6
					c-6.9,0-13.7,0.8-20.5,2.1c-5.7,1.1-11.3,2.6-17,4c-5.4,1.3-10.8,2.1-16.2,2.9c0.2,0.4,0.4,0.6,0.8,0.8c1.2,0.7,2.4,1.4,3.6,2.1
					c1.2,0.7,2.5,1.3,3.7,1.9C695.3,38.1,695.7,38.2,696.1,38.1z"/>
				<path class="st7" d="M697.1,42.1c10.2-2.1,20.2-5.1,30.4-7.2c4.5-1,9-1.7,13.6-2c2.2-0.3,4.3-0.3,6.5-0.1c3.1,0,6.1,0.3,9.2,0.9
					c-0.1,0-0.2,0-0.4-0.1c2.1,0.5,4.2,1,6.3,1.5c-0.1,0-0.2-0.1-0.4-0.1c3.9,1.1,7.7,2.5,11.4,4.3c2.8,1.3,5.4,2.8,7.9,4.5
					c2.6,1.6,5,3.3,7.3,5.3c3.1,2.6,5.9,5.4,8.6,8.5c0.3,0.4,0.4,0.3,0.3-0.1c-0.2-1-0.5-1.9-1-2.9c-0.7-1.8-1.4-3.6-2.2-5.4
					c-0.3-1-0.8-1.9-1.3-2.7c-4.9-4.2-9.8-8-15.6-11.2c-5.6-3-11.6-5.6-17.8-7.1c-10.6-2.7-21.3-3.1-32.1-1.7
					c-6.9,0.9-13.7,2.7-20.5,4.3c-2.3,0.5-4.5,1.1-6.8,1.6c-4.1,0.8-8.3,1.5-12.5,2c0.1,0.4,0.4,0.8,0.7,1c1.1,1.1,2.3,2.1,3.5,3.1
					c1.2,1,2.4,2,3.6,3C696.3,41.8,696.7,42,697.1,42.1z"/>
				<path class="st7" d="M698.3,39c8.9-2.2,17.8-4.7,26.8-6.8c10.6-2.5,21.4-3.9,32.2-1.8c7.9,1.5,15.5,4.6,22.4,8.8
					c3.4,2.1,6.7,4.5,9.7,7.1c3,2.7,5.8,5.5,8.3,8.7c0.3,0.4,0.5,0,0.5-0.3c0.1-0.4-0.6-1.6-0.9-1.9c-2.8-3-5.6-6-8.8-8.7
					c-3.9-3.4-8.4-6.1-12.9-8.5c-8.2-4.3-17.4-7.3-26.6-7.8c-6.8-0.4-13.5,0.2-20.2,1.4c-5.7,1.1-11.4,2.6-17,4.1
					c-5.3,1.4-10.6,2.6-15.9,4c-0.6,0.2,0.4,0.8,0.4,0.8C696.7,38.4,697.8,39.1,698.3,39z"/>
				<path class="st7" d="M696.7,40.2c4.5-0.9,9-1.9,13.5-3c5.7-1.4,11.3-3,17-4.2c4.5-1,9-1.7,13.6-2c2.2-0.3,4.3-0.3,6.5-0.1
					c3.1,0,6.1,0.3,9.2,0.9c-0.1,0-0.3-0.1-0.4-0.1c2.1,0.5,4.2,1,6.4,1.4c-0.1,0-0.3-0.1-0.4-0.1c2.1,0.7,4.1,1.3,6.2,2
					c-0.1,0-0.3-0.1-0.4-0.1c5.6,2.3,11.1,4.8,16.1,8.3c5,3.5,9.3,7.6,13.5,12.1c0.3,0.3,0.3,0.3,0.3-0.1c-0.1-0.4-0.2-0.7-0.4-1.1
					c-0.5-1.2-1.1-2.5-1.6-3.7c-0.9-1.9-1.7-3.8-2.6-5.7c-0.4-0.7-0.7-1.8-1.4-2.3c-5-4-10.1-7.5-15.8-10.4c-7.6-4-16.4-6.8-24.9-8
					c-9.9-1.4-19.8-1.1-29.7,0.7c-5.7,1-11.4,2.4-17,3.7c-2.2,0.5-4.5,1.1-6.7,1.6c-4.2,0.7-8.4,1.4-12.6,1.9
					c0.2,0.5,0.6,0.9,1.1,1.1c1.5,1.2,3.1,2.3,4.6,3.4c1.6,1.1,3.1,2.2,4.7,3.3C695.7,39.9,696.2,40.1,696.7,40.2z"/>
				<path class="st7" d="M696.6,39.3c4.4-1,8.9-1.9,13.3-3c4.6-1.1,9.1-2.4,13.6-3.5c9.7-2.3,19.5-3.7,29.5-2.4
					c8.1,1.1,15.7,3.6,22.9,7.4c3.6,1.9,6.9,4.1,10.1,6.5c4,3.1,7.4,6.6,10.9,10.4c0.7,0.8-0.3-2.1-0.1-1.6c-0.5-1.2-1-3.2-2-4.1
					c-3-2.8-6.1-5.7-9.4-8.1c-3.3-2.4-7-4.6-10.7-6.5c-8.4-4.2-17.6-6.8-27-7.6c-9-0.8-17.8,0.4-26.6,2.3c-4.6,1-9.1,2.1-13.6,3.3
					c-5.3,1.4-10.7,2.4-16.1,3.3c-0.9,0.2,1.2,1.3,1.1,1.3c0.9,0.6,1.8,1.1,2.7,1.6C695.6,38.9,696.1,39.2,696.6,39.3z"/>
				<path class="st7" d="M699.2,38.8c6.7-1.7,13.3-3.4,20-5.1c9.8-2.6,19.7-4.9,29.9-4.4c6.2,0.3,12.1,1.5,17.9,3.5
					c12.7,4.5,22.3,11.8,31.4,22.3c0.3,0.3,0.5-0.1,0.5-0.3c0.1-0.4-0.5-1.2-0.8-1.5c-2.1-2.3-4.1-4.5-6.3-6.6
					c-3-2.8-6.2-5.3-9.6-7.5c-8.8-5.7-18.5-9.5-28.9-10.9c-7.8-1.1-15.6-0.5-23.4,0.9c-4.6,0.8-9.1,2-13.6,3.2
					c-6.5,1.6-13,3.3-19.4,5c-0.6,0.2,0.3,0.7,0.4,0.8C697.8,38.4,698.7,38.9,699.2,38.8z"/>
				<path class="st7" d="M696.3,41c10.2-2.1,20.3-5,30.5-7.2c4.5-1,9-1.7,13.6-2c2.2-0.3,4.3-0.3,6.5-0.1c3.1,0,6.1,0.3,9.2,0.9
					c-0.1,0-0.2-0.1-0.4-0.1c2.1,0.5,4.2,1,6.3,1.4c-0.1,0-0.2-0.1-0.4-0.1c2.1,0.7,4.1,1.3,6.2,2c-0.1,0-0.2-0.1-0.4-0.1
					c5.6,2.4,11.1,4.8,16.1,8.4c5,3.6,9.3,7.7,13.5,12.2c0.3,0.3,0.3,0.3,0.3-0.1c-0.1-0.3-0.2-0.7-0.3-1c-0.4-1.2-0.8-2.4-1.3-3.5
					c-0.7-1.8-1.4-3.6-2.1-5.4c-0.3-0.7-0.6-1.7-1.2-2.2c-4.2-3.4-8.3-6.6-13-9.2c-9.3-5.3-19.5-8.8-30.2-10.1
					c-10-1.3-19.9-0.5-29.8,1.4c-4.6,0.9-9.1,2-13.6,3.1c-3.3,0.9-6.6,1.7-9.9,2.2c-3.1,0.6-6.2,1-9.4,1.4c0.1,0.5,0.4,0.8,0.8,1.1
					c1.3,1.1,2.5,2.2,3.8,3.3c1.3,1.1,2.6,2.1,3.9,3.1C695.4,40.7,695.8,40.9,696.3,41z"/>
			</g>
		</g>
	</g>
	<g>
		<g>
			<g>
				<path class="st7" d="M715.1,39.3c1.5-0.7,3.1-1.4,4.6-2.1c2.3-0.9,4.8-1.4,7.2-1.5c3.2-0.5,6.3-0.2,9.4,1c2.3,0.4,4.6,0.8,7,1.3
					c7.9,13.3,15.8,26.7,23.6,40c0,0.8,0.4,0.5,0.6,0c0.4-1,0.4-2.8,0.3-3.8c-0.5-5.2-1.3-10.2-3.3-15.1c-2-4.9-4.7-9.2-8.2-13.2
					C752,40.8,745.8,37,739.3,35c-3.3-1-6.7-1.5-10.1-1.8c-3.4-0.1-6.8,0.2-10.2,0.9c-3.3,0.7-6.4,1.8-9.3,3.3
					c-0.8,0.4,1.4,0.9,1.3,0.9c0.9,0.3,1.8,0.5,2.7,0.8C714.1,39.3,714.6,39.4,715.1,39.3z"/>
				<path class="st7" d="M716,42.8c2.2-1.3,4.6-2.2,7.1-2.8c5.4-1.7,10.9-1.6,16.7,0.2c17,5.3,26.9,18.5,26.8,41.7
					c0,0.3-0.1,1.1,0.5,0.9c0.4-0.2,0.4-2,0.4-2.4c-0.1-4.7-0.4-9.2-1.6-13.8c-1.2-4.4-3.2-8.5-5.6-12.4
					c-4.1-6.5-10.2-11.5-17.3-14.4c-2.9-1.2-6.7-2.1-9.8-2.4c-3.3-0.3-6.6-0.2-9.9,0.3c-3.3,0.7-6.4,1.9-9.3,3.6
					C713.2,41.7,715.5,43.1,716,42.8z"/>
				<path class="st7" d="M712.4,37.7c3-1.6,6.2-2.8,9.6-3.4c-0.1,0-0.3,0.1-0.4,0.1c3.3-0.6,6.6-0.8,9.9-0.5
					c6.6,0.6,12.6,2.8,18.2,6.6c-0.8-0.6-1.7-1.2-2.5-1.9c1.9,1.5,3.9,3.1,5.8,4.6c-0.8-0.7-1.5-1.4-2.3-2.1
					c1.8,1.7,3.5,3.5,5.3,5.2c-0.7-0.8-1.4-1.5-2-2.3c1.6,1.9,3.1,3.8,4.7,5.7c-0.6-0.8-1.2-1.6-1.8-2.5c3.2,9.1,6.4,18.3,9.6,27.4
					c0.1,0.4,0.2,0.5,0.3,0c0.2-1,0.4-2,0.5-3c0.2-1.9,0.4-3.8,0.5-5.7c0.1-1,0.2-2,0.1-3c-1.2-3.8-2.6-7.4-4.6-10.8
					c-1.6-2.8-3.5-5.3-5.6-7.7c-5.4-6-12.2-10.5-19.8-13c-7.6-2.5-15.8-2.9-23.7-1.7c-1.7,0.3-3.5,0.7-5.2,1.2
					c-3.5,0.9-6.6,2.2-10,3.6c0.4,0.3,0.8,0.5,1.3,0.6c1.7,0.5,3.5,0.9,5.3,1.3c1.8,0.4,3.5,0.8,5.3,1.1
					C711.5,37.9,712,37.9,712.4,37.7z"/>
				<path class="st7" d="M712.7,39.2c4.7-1.3,9.4-2.5,14.2-3.8c2.5-0.1,5,0,7.4,0.5c18.1,2.9,31.2,17.2,31.8,41.4
					c0.1,0.4,0.2,0.4,0.3,0c0.3-0.8,0.4-1.7,0.5-2.6c0.2-1.7,0.5-3.3,0.6-5c0.1-0.9,0.2-1.7,0.2-2.6c-0.9-3.8-1.9-7.3-3.6-10.9
					c-1.4-2.8-2.9-5.4-4.8-8c-4.8-6.3-11-11.2-18.3-14.2c-7.3-2.9-15.3-3.8-23.1-2.8c-1.7,0.2-3.5,0.6-5.1,1c-3.4,0.8-6.5,2-9.7,3.5
					c0.2,0.3,0.5,0.5,0.9,0.6c1.2,0.5,2.5,1,3.8,1.4c1.3,0.4,2.5,0.9,3.8,1.2C711.9,39.4,712.3,39.4,712.7,39.2z"/>
				<path class="st7" d="M715.8,38.4c3.6-2.2,7.5-3.1,11.7-2.8c21.1-4.2,34.2,9.9,39.4,42.2c0,0.3,0,0.9,0.5,0.7
					c0.4-0.2,0.4-1.5,0.3-1.8c-0.1-5.8-0.7-11.2-2.6-16.7c-2-5.8-5.3-11.4-9.7-15.7c-3.3-3.3-7-5.8-11.3-7.7
					c-5.6-2.5-11.6-3.7-17.8-3.3c-1.6,0.1-3.5,0.3-5.1,0.6c-3.4,0.6-6.3,1.9-9.5,3.3c-0.7,0.3,1,0.8,0.9,0.7
					C713.5,38.2,715.1,38.8,715.8,38.4z"/>
				<path class="st7" d="M712.3,37c1.6-0.7,3.2-1.4,4.7-2.1c-0.1,0-0.2,0.1-0.3,0.1c2.4-0.9,4.8-1.4,7.3-1.6
					c7.3-1.1,14.4,0.2,21.4,3.9c-0.7-0.4-1.5-0.8-2.2-1.2c16.2,9.5,22.3,21.4,23.1,38.2c0.1,0.3,0.2,0.4,0.3,0
					c0.3-0.7,0.4-1.5,0.5-2.3c0.2-1.5,0.4-3,0.6-4.4c0.1-0.8,0.2-1.6,0.1-2.3c-0.8-3-1.6-5.9-2.9-8.7c-1.6-3.6-3.8-6.9-6.2-10
					c-4.3-5.4-10.1-10.1-16.5-12.9c-6.5-2.8-13.5-4-20.6-3.8c-4.4,0.2-8.7,1-12.9,2.3c-3.7,1.1-3,0.9-7.5,2.9
					c0.3,0.3,0.7,0.5,1.1,0.5c1.4,0.3,2.9,0.6,4.3,0.8c1.5,0.2,2.9,0.5,4.4,0.6C711.6,37.2,712,37.2,712.3,37z"/>
				<path class="st7" d="M713.2,40.6c3-1.6,6.2-2.7,9.6-3.3c-0.1,0-0.2,0-0.3,0c1.8-0.2,3.5-0.4,5.3-0.6c-0.1,0-0.2,0-0.3,0
					c4.2,0.2,8.1,0.5,12.2,1.7c16,5,26.2,18.3,26.8,39.6c0,0.3-0.1,1.1,0.2,1.3c0.2,0.1,0.5-2.2,0.5-2.2c0.2-1.7,0.4-3.5,0.5-5.3
					c0.1-1.3,0.5-3.1,0.2-4.4c-0.9-3.9-1.9-7.4-3.6-10.9c-1.7-3.5-3.8-6.8-6.3-9.8c-5-5.9-11.9-10.9-19.4-13.2
					c-4.3-1.3-8.6-2-13-2.1c-2.7,0-5.3,0-8,0.4c-1.7,0.3-3.4,0.7-5.1,1c-3.3,0.7-6.4,1.8-9.4,3.4c0.2,0.4,0.5,0.6,0.9,0.7
					c1.3,0.6,2.6,1.3,4,1.8c1.3,0.6,2.7,1.2,4,1.7C712.4,40.6,712.8,40.7,713.2,40.6z"/>
				<path class="st7" d="M714.6,36.9c3.6-2.1,7.4-3.3,11.4-3.4c20.1-2.6,33.3,11.8,39.7,43.1c0,0.5,0.4,0.2,0.6,0.1
					c0.3-0.3,0.4-1.5,0.4-1.9c-0.2-4.2-0.5-8.4-1.6-12.5c-0.7-2.7-1.7-5.4-2.9-8c-2.6-5.3-6.3-10.7-11-14.3c-4.4-3.3-9.4-5.7-14.7-7
					c-3.6-0.9-7.2-1.1-10.8-1c-3.7,0.1-4.6,0.5-7.6,1.3c-3.5,1-2.5,0.7-6.9,2.7c-0.7,0.3,1,0.7,0.8,0.6
					C712.7,36.9,713.9,37.2,714.6,36.9z"/>
				<path class="st7" d="M712.8,39c3-1.6,6.2-2.8,9.6-3.4c-0.1,0-0.3,0-0.4,0c1.8-0.2,3.6-0.4,5.4-0.6c-0.1,0-0.3,0-0.4,0
					c4.2,0.1,8.1,0.4,12.2,1.6c1.6,0.4,3.1,0.9,4.6,1.7c14,5.7,21.7,18.4,22.9,38.1c0.1,0.5,0.2,0.5,0.3,0c0.2-1.1,0.4-2.2,0.4-3.4
					c0.2-2.2,0.4-4.3,0.5-6.5c0.1-1.1,0.1-2.3,0.1-3.4c-1.4-4.6-3-8.9-5.7-13c-1.8-2.6-3.8-5.2-6-7.5c-5-5.3-11.6-9.1-18.5-11.4
					c-4.3-1.4-8.6-2.2-13.1-2.3c-3.5-0.1-7.4,0.1-10.9,0.7c-1.7,0.4-3.5,0.8-5.2,1.2c-3.3,0.8-6.5,1.9-9.6,3.5
					c0.4,0.4,0.8,0.6,1.3,0.7c1.8,0.6,3.6,1.3,5.4,1.8c1.8,0.6,3.6,1.2,5.5,1.7C711.8,39,712.3,39.1,712.8,39z"/>
				<path class="st7" d="M713,37.9c3-1.6,6.1-2.7,9.4-3.3c6.3-1.1,12.6-0.5,18.9,1.8c13.6,7.3,21.6,17.5,24,30.6
					c0.5,2.9,0.7,5.8,0.6,8.7c0,1.3,0.5,0.3,0.7-0.4c0.4-1.5,0.9-3.5,0.7-5c-0.9-5.8-2.3-11.4-5.2-16.6c-2.3-4.1-5.1-7.8-8.5-11.1
					c-4.7-4.4-10.4-7.6-16.5-9.4c-3.5-1-7.1-1.4-10.8-1.5c-3.5,0-6.9,0.3-10.3,1.1c-3.3,0.7-6.4,1.8-9.4,3.4
					c-0.9,0.4,1.8,0.9,1.6,0.9c1.1,0.3,2.1,0.5,3.2,0.7C711.8,37.9,712.4,37.9,713,37.9z"/>
				<path class="st7" d="M715.5,36.6c8.6-5.2,17-4.1,25.4,3.4c18.9,2.6,27.3,14.7,25.4,36.3c0,0.3,0.1,0.6,0.5,0.5
					c0.3-0.1,0.4-1,0.4-1.2c-0.1-5.9-0.6-11.5-2.5-17.1c-1.2-3.4-2.8-6.6-4.8-9.6c-2-3-4.2-6-7-8.3c-4.3-3.6-9.3-5.9-14.6-7.4
					c-3-0.8-5.9-1.2-9-1.2c-3.4,0-6.7,0.3-10.1,1.2c-3.6,1-2.6,0.7-7.1,2.7c-0.7,0.3,1,0.6,0.8,0.6
					C713.7,36.7,714.8,36.9,715.5,36.6z"/>
				<path class="st7" d="M712.3,39.7c3-1.6,6.2-2.7,9.6-3.3c-0.1,0-0.2,0-0.4,0c1.8-0.2,3.6-0.4,5.3-0.6c-0.1,0-0.2,0-0.4,0
					c4.2,0.1,8.2,0.4,12.3,1.6c16.4,4.9,26.7,18.4,27.3,40.3c0.1,0.5,0.2,0.5,0.3,0c0.3-1,0.5-2.1,0.6-3.2c0.3-2.1,0.5-4.1,0.7-6.2
					c0.2-1.1,0.2-2.1,0.2-3.2c-1-3.9-2.2-7.4-4.1-10.9c-1.8-3.5-4.1-6.8-6.8-9.7c-5.3-5.8-12.5-10.6-20.1-12.7
					c-3.5-1-7-1.6-10.6-1.8c-3.4-0.2-7.3,0-10.8,0.5c-1.7,0.4-3.4,0.7-5.2,1.1c-3.3,0.8-6.5,1.9-9.5,3.5c0.3,0.4,0.6,0.6,1.1,0.7
					c1.5,0.6,3,1.3,4.5,1.8c1.5,0.6,3,1.2,4.5,1.7C711.4,39.7,711.9,39.8,712.3,39.7z"/>
			</g>
		</g>
	</g>
</g>
<g>
	<g>
		<g>
			<path class="st7" d="M600.6,91c6.8-7,13.6-13.8,21.5-19.5c6.2-4.5,12.7-8.4,19.6-11.8c3.7-1.8,7.2-3.3,11.2-4.2
				c1.2-0.2,2.4-0.5,3.6-0.7c5.9-1.2,11.4-0.2,16.4,2.9c-1-0.6-2.1-1.3-3.1-1.9c1.7,1.2,3.4,2.5,5.1,3.7c-0.9-0.8-1.8-1.5-2.7-2.3
				c1.7,1.7,3.5,3.4,5.2,5.1c-0.1-0.1,1,1.1,1.3,0.8c0.3-0.3-0.8-1.3-0.7-1.3c-4.2-4.9-9.4-8.5-16-9.3c-7.5-0.9-15.4,1.4-22.2,4.5
				c-7,3.2-13.6,7.3-19.8,11.7c-9.3,6.5-17.3,14.1-25.3,22.2c-0.6,0.6,1.5,0.5,1.5,0.5c0.9,0,1.9,0,2.8-0.1
				C599.6,91.2,600.1,91.2,600.6,91z"/>
			<path class="st7" d="M602.4,94.1c2.7-4,5.9-7.6,9.7-10.6c3.5-3.3,7.2-6.4,11.1-9.1c6.2-4.4,12.7-8.3,19.6-11.6
				c3.6-1.7,7.2-3.3,11.2-4c3.5-0.3,7-0.5,10.5-0.8c5.7,0.6,10.4,3.5,14,8.8c0.2,0.3,0.5,0.7,0.8,0.4c0.3-0.3-0.6-1.3-0.7-1.4
				c-1.8-2.4-3.4-4.3-5.9-6c-3.9-2.7-8.8-3.7-13.5-3.4c-5,0.2-10,1.7-14.7,3.5c-4.1,1.8-8.1,3.9-11.9,6.3c-4,2.2-7.9,4.8-11.6,7.6
				c-2.5,2-5,3.9-7.5,5.9c-5.2,3.8-9.4,8.5-12.5,14.1C600.5,94.2,602.1,94.5,602.4,94.1z"/>
			<path class="st7" d="M597.9,90c2.3-2.4,4.6-4.7,7-7.1c3.5-3.4,7.2-6.6,11-9.5c2.4-2,4.9-3.9,7.6-5.6c3.7-2.7,7.6-5.1,11.7-7.3
				c-0.1,0.1-0.2,0.1-0.4,0.2c2.8-1.4,5.6-2.8,8.4-4.2c-0.1,0.1-0.2,0.1-0.4,0.2c3.5-1.3,7.1-2.6,10.8-3.2c1.2-0.2,2.4-0.3,3.6-0.5
				c3.5-0.3,6.9,0.1,10.3,1.2c-1-0.4-2-0.8-3-1.1c1.7,0.7,3.4,1.5,5.1,2.2c-2.4-1.3-4.8-2.7-7.2-4c3.4,2,6.7,4,10.1,6
				c-2.7-2-5.5-4-8.2-6c3.6,2.9,7.2,5.7,10.9,8.6c0.2,0.2,0.8,0.8,1.2,0.7c0.2-0.1-1.5-1.8-1.5-1.9c-1.3-1.3-2.6-2.6-4-3.8
				c-1-0.9-2.2-2.4-3.5-3c-1.2-0.5-2.4-1.1-3.6-1.6c-1.8-0.7-3.7-1.1-5.7-1.3c-2.6-0.3-5.1-0.3-7.7,0c-3.3,0.4-6.6,1.2-9.8,2.3
				c-6.8,2.5-13.3,6-19.5,9.7c-13.8,8.4-25.7,19.4-37.3,30.5c0.5,0.2,1,0.3,1.5,0.1c1.8-0.1,3.7-0.3,5.5-0.5
				c1.8-0.2,3.7-0.4,5.5-0.7C597,90.5,597.5,90.3,597.9,90z"/>
			<path class="st7" d="M598,91.3c2.3-2.4,4.6-4.7,6.9-7.1c5.6-5.6,11.8-10.4,18.7-14.4c4.7-4,9.8-7.3,15.4-9.9
				c2.4-1.4,4.9-2.5,7.6-3.3c2.4-0.8,4.8-1.4,7.3-1.9c6.1-1.1,11.2-0.3,17.1,2.6c-0.7-0.4-1.4-0.9-2.1-1.3c1.4,1,2.8,2,4.2,3
				c-1.6-1.4-3.2-2.9-4.8-4.3c2.5,2.4,4.9,4.7,7.4,7.1c0.2,0.2,0.6,0.7,0.9,0.6c0.3-0.1-1-1.6-1-1.7c-0.9-1.2-1.9-2.3-2.8-3.4
				c-0.7-0.8-1.6-2.1-2.5-2.7c-1.1-0.7-2.3-1.3-3.4-2c-1.7-0.9-3.5-1.4-5.4-1.7c-2.5-0.5-4.9-0.6-7.4-0.5
				c-6.6,0.4-12.8,2.6-18.8,5.4c-18,8.5-33,21.7-47.2,35.5c0.3,0.2,0.6,0.3,1,0.3c1.3,0.1,2.6,0.1,3.9,0.1c1.3,0,2.6,0,3.9-0.1
				C597.3,91.7,597.7,91.6,598,91.3z"/>
			<path class="st7" d="M601.2,89.9c4.5-4.7,9-9.4,14-13.6c6-5,12.4-9.5,19.2-13.4c4-2.7,8.4-4.5,13.2-5.6c3.5-2.1,7.2-3.3,11.1-3.5
				c4.4-0.4,7.6,0.2,12.1,1.6c-0.8-0.3-1.6-0.7-2.4-1c1.6,0.8,3.2,1.6,4.9,2.5c-0.7-0.4-1.4-0.9-2.2-1.3c2.1,1.8,4.2,3.7,6.2,5.5
				c0.4,0.4,1.2,1.5,1.8,1.6c0.3,0,0.6-0.1,0.3-0.5c-1.8-2.2-3.3-4.3-5.8-5.9c-1-0.6-2.1-1.2-3.1-1.7c-3.6-1.7-7.5-2.4-11.5-2.2
				c-4.6,0.1-9.1,1.2-13.5,2.8c-7,2.4-13.4,6.3-19.7,10.2c-10.9,6.9-20.2,15.7-29.2,24.8c-0.6,0.6,1.3,0.4,1.2,0.4
				C598.5,90.4,600.6,90.5,601.2,89.9z"/>
			<path class="st7" d="M597.9,89.2c4.5-4.8,9.2-9.4,14.3-13.7c-0.1,0.1-0.2,0.2-0.3,0.2c4.9-3.9,9.8-7.9,15.2-11.3
				c5.5-3.5,11.5-7.1,17.6-9.3c2.4-0.9,4.8-1.6,7.2-2.1c4.3-1,7.9-1,12.5-0.5c-0.9-0.2-1.7-0.4-2.6-0.6c1.7,0.4,3.3,0.9,5,1.3
				c-2.1-0.8-4.1-1.6-6.2-2.4c3.1,1.3,6.2,2.6,9.3,3.9c-2.4-1.3-4.9-2.6-7.3-3.8c3.4,2,6.8,3.9,10.2,5.9c-2.2-1.5-4.4-3-6.6-4.6
				c3.1,2.8,6.4,5.4,9.9,7.6c0.1,0,0.2,0,0.3,0c0.3-0.3-1.5-1.9-1.7-2.1c-1.5-1.4-3.1-2.9-4.7-4.2c-5.9-4.7-14.2-5-21.1-3.7
				c-10.5,2-20.1,7.5-29,13.2c-12.4,8-23.1,17.8-33.7,28.1c0.4,0.2,0.8,0.2,1.3,0.1c1.6-0.2,3.1-0.5,4.6-0.7
				c1.5-0.3,3.1-0.6,4.6-0.9C597.2,89.7,597.6,89.6,597.9,89.2z"/>
			<path class="st7" d="M598.5,92.6c6.8-7,13.7-13.8,21.7-19.5c2.6-1.8,5.1-3.5,7.7-5.3c4.8-3.3,9.9-5.9,15.4-7.7
				c2.9-1.7,6.1-2.9,9.3-3.5c1.8-0.4,3.6-0.7,5.5-0.8c6.4-0.3,10.7,1.1,16.3,5.3c-1.3-1.3-2.7-2.5-4-3.8c2,2,3.9,4,5.9,6
				c0.2,0.2,0.7,0.8,1,0.8c0.2,0-1.1-1.9-1.1-1.9c-1-1.4-2-2.7-3.1-4c-0.7-0.9-1.7-2.6-2.7-3.2c-1.1-0.7-2.3-1.3-3.4-2
				c-1.7-0.9-3.5-1.4-5.4-1.7c-1.8-0.4-2-0.4-3.8-0.5c-3.9-0.2-7.6,0.3-11.4,1.4c-7.4,2-14.4,5.6-21,9.5
				c-13.7,8.2-25.6,18.9-37,29.9c0.3,0.3,0.6,0.4,1,0.4c1.3,0.2,2.7,0.3,4,0.4c1.3,0.1,2.7,0.2,4,0.3
				C597.8,92.9,598.2,92.8,598.5,92.6z"/>
			<path class="st7" d="M599.8,88.4c4.3-4.9,9-9.4,14-13.6c4.8-4.1,9.9-7.8,15.2-11.1c7.1-5,14.7-8.5,22.9-10.5
				c4.7-1.2,9.5-1.3,14.4-0.4c-0.7-0.2-1.5-0.4-2.2-0.5c4.1,2.6,8.2,5.2,12.4,7.9c0.3,0.3,1,1.1,1.4,1.1c0.2,0,0.5-0.2,0.3-0.5
				c-2.1-2.6-4.1-5-7.1-6.6c-1-0.6-1.9-1-3-1.4c-2.8-1-5.2-1.4-8.2-1.6c-6.5-0.4-13.3,1.7-19.2,4.2c-5.6,2.3-11,5.7-16.1,8.9
				c-11,6.9-20.3,15.7-29.2,24.9c-0.6,0.6,1.4,0.2,1.2,0.3C597.4,89.1,599.2,89,599.8,88.4z"/>
			<path class="st7" d="M598.1,91.3c6.8-7,13.8-13.9,21.7-19.6c2.6-1.8,5.1-3.5,7.7-5.3c5.1-3.3,10.4-6.1,15.9-8.6
				c-0.1,0-0.3,0.1-0.4,0.1c1.3-0.5,2.7-0.9,4-1.4c-0.1,0-0.3,0.1-0.4,0.1c1.4-0.4,2.7-0.8,4.1-1.2c-0.1,0-0.3,0.1-0.4,0.1
				c1.4-0.3,2.7-0.6,4.1-0.9c-0.1,0-0.3,0.1-0.4,0.1c2.4-0.4,4.8-0.6,7.3-0.5c3.5,0.1,6.8,1.1,9.9,2.9c-1.9-1.2-3.8-2.4-5.8-3.6
				c2.9,1.9,5.7,3.8,8.6,5.7c-2.6-2.1-5.2-4.2-7.8-6.3c3.2,2.8,6.3,5.6,9.5,8.4c0.2,0.2,0.8,1,1.2,0.9c0.2,0-1.5-2.1-1.6-2.2
				c-1.4-1.5-2.7-3-4.2-4.5c-0.6-0.7-1.3-1.4-1.9-2c-0.5-0.6-1.1-1.1-1.7-1.6c-2.6-1.2-4.9-2.2-7.7-2.7c-1.2-0.2-2.5-0.4-3.8-0.5
				c-4.6-0.3-9.4,0.7-13.8,2c-7.5,2.4-14.5,6.2-21.2,10.3c-13.7,8.4-25.6,19.3-37.2,30.4c0.5,0.3,1,0.3,1.5,0.3c1.9,0,3.7,0,5.6,0
				c1.9,0,3.7-0.1,5.6-0.2C597.1,91.6,597.6,91.5,598.1,91.3z"/>
			<path class="st7" d="M598.4,89.8c2.3-2.3,4.5-4.7,6.8-7c3.5-3.4,7.1-6.6,11-9.5c6.1-4.8,12.5-9.3,19.3-12.9
				c11-5.8,22.7-10.4,35.4-4.4c-1.2-0.7-2.4-1.4-3.5-2.1c2.1,1.4,4.2,2.9,6.3,4.3c-1.3-1.1-2.6-2.1-3.9-3.2c2,2.5,4.3,4.6,6.9,6.2
				c0.1,0,0.2,0,0.2,0c0.3-0.3-0.7-1.3-0.9-1.5c-4.2-4.8-10.2-8.2-16.6-8.8c-7.2-0.6-14.4,1.7-20.9,4.5c-18.2,7.8-33.2,21.2-47.1,35
				c-0.7,0.7,2.1,0.3,1.9,0.3c1.2-0.1,2.3-0.3,3.5-0.5C597.3,90.2,597.9,90,598.4,89.8z"/>
			<path class="st7" d="M600.7,88c4.5-4.7,9-9.4,14-13.6c9.7-8.1,20.8-16.1,32.7-20c2.4-0.8,4.8-1.5,7.3-1.9c3.7-1,7.3-0.3,10.9,2.1
				c5.3-0.3,9.2,1.5,11.7,5.5c0.2,0.3,1,1.1,1.4,1.1c0.2,0,0.6-0.1,0.4-0.5c-1.8-2.3-3.1-4.3-5.5-5.9c-1.9-1.4-3.9-2.2-6.2-2.9
				c-2.6-0.8-5.3-1-8-1c-7.6,0.1-14.8,2.6-21.5,5.9c-5.7,2.8-11.1,6-16.3,9.7c-4,2.7-7.8,5.6-11.5,8.7c-4.9,4.2-9.5,8.7-13.9,13.4
				c-0.6,0.6,1.4,0.2,1.2,0.3C598.3,88.8,600.1,88.6,600.7,88z"/>
			<path class="st7" d="M597.5,91.9c6.9-7,13.8-13.8,21.8-19.6c2.6-1.8,5.1-3.5,7.7-5.3c5.1-3.3,10.4-6.1,16-8.6
				c-0.1,0-0.2,0.1-0.3,0.1c1.3-0.5,2.6-0.9,3.9-1.4c-0.1,0-0.2,0.1-0.3,0.1c1.3-0.4,2.7-0.8,4-1.2c-0.1,0-0.2,0.1-0.3,0.1
				c1.3-0.3,2.7-0.6,4-0.9c-0.1,0-0.2,0.1-0.4,0.1c2.4-0.4,4.8-0.6,7.3-0.5c4.7,0.2,9,1.9,12.8,5.2c-1.5-1.3-2.9-2.7-4.4-4
				c2.1,2,4.2,4.1,6.3,6.1c0.2,0.2,0.7,0.9,1.1,0.8c0.2,0-1.2-2-1.2-2c-1.1-1.4-2.3-2.9-3.4-4.3c-0.8-0.9-1.9-2.8-3-3.4
				c-2.5-1.3-4.7-2.4-7.5-3c-1.2-0.2-2.5-0.5-3.7-0.6c-4.5-0.5-9.3,0.4-13.6,1.6c-7.5,2.2-14.5,5.9-21.1,9.9
				c-13.7,8.3-25.6,19.1-37.2,30.2c0.3,0.3,0.7,0.4,1.2,0.3c1.5,0.1,3.1,0.2,4.6,0.3c1.5,0.1,3.1,0.1,4.6,0.1
				C596.7,92.2,597.1,92.1,597.5,91.9z"/>
		</g>
	</g>
</g>
</svg>
